<svg id="svg" version="1.1" xmlns="http://www.w3.org/2000/svg" xmlns:xlink="http://www.w3.org/1999/xlink" width="400" height="145.26854219948848" viewBox="0, 0, 400,145.26854219948848"><g id="svgg"><path id="path0" d="M0.000 72.583 L 0.000 145.167 200.000 145.167 L 400.000 145.167 400.000 72.583 L 400.000 0.000 200.000 0.000 L 0.000 0.000 0.000 72.583 M120.565 38.922 C 121.010 39.368,121.014 39.665,120.965 72.167 C 120.911 107.896,120.997 105.451,119.801 105.224 C 118.822 105.039,118.529 104.607,118.104 102.717 C 117.860 101.635,117.833 98.542,117.833 71.011 C 117.833 42.385,117.816 40.483,117.546 40.169 C 117.261 39.835,117.105 39.833,84.338 39.817 C 52.351 39.801,50.676 39.779,50.547 39.391 C 50.406 38.969,52.905 38.929,84.833 38.840 C 103.213 38.790,118.713 38.730,119.280 38.707 C 120.025 38.678,120.380 38.737,120.565 38.922 M87.583 51.838 C 89.766 52.018,91.477 52.548,92.279 53.292 C 92.517 53.512,93.124 53.888,93.629 54.127 C 94.181 54.388,94.716 54.798,94.973 55.156 C 95.207 55.483,95.697 55.975,96.062 56.250 C 96.427 56.525,96.922 57.125,97.162 57.583 C 97.403 58.042,97.833 58.661,98.118 58.960 C 98.608 59.473,99.667 61.699,99.667 62.216 C 99.667 62.500,101.006 63.047,101.514 62.970 C 101.783 62.930,101.970 62.650,102.274 61.833 C 102.833 60.335,103.535 58.833,103.677 58.833 C 103.742 58.833,104.032 58.357,104.321 57.774 C 105.002 56.404,107.283 54.303,108.391 54.024 C 108.786 53.924,109.292 53.710,109.514 53.546 C 111.433 52.141,113.573 52.330,114.275 53.966 C 114.850 55.305,114.524 56.838,113.348 58.333 C 113.095 58.654,112.693 59.502,112.453 60.218 C 112.213 60.933,111.728 61.946,111.376 62.468 C 111.023 62.990,110.527 63.904,110.273 64.500 C 110.019 65.096,109.410 66.258,108.921 67.083 C 108.431 67.908,107.905 68.970,107.751 69.442 C 107.598 69.915,107.291 70.472,107.069 70.680 C 106.848 70.888,106.667 71.122,106.667 71.199 C 106.667 71.277,106.493 71.620,106.280 71.962 C 105.061 73.925,104.668 75.653,105.097 77.167 C 105.240 77.671,105.508 78.646,105.693 79.333 C 105.878 80.021,106.359 81.248,106.762 82.060 C 107.166 82.872,107.712 84.187,107.976 84.981 C 108.240 85.775,108.718 86.835,109.038 87.337 C 111.251 90.808,111.107 91.693,108.182 92.602 C 105.057 93.573,101.974 92.164,100.300 89.000 C 99.754 87.968,99.681 87.901,98.754 87.586 L 97.781 87.256 97.437 87.753 C 97.010 88.370,94.809 90.545,94.010 91.140 C 93.684 91.383,93.377 91.634,93.330 91.698 C 93.282 91.762,92.532 92.165,91.663 92.593 C 90.794 93.022,89.896 93.502,89.667 93.660 C 87.071 95.454,77.800 95.149,74.314 93.155 C 73.524 92.703,72.798 92.333,72.700 92.333 C 72.603 92.333,72.237 92.060,71.887 91.726 C 71.537 91.392,70.954 90.902,70.592 90.637 C 70.230 90.372,69.732 89.850,69.486 89.478 C 69.239 89.106,68.772 88.583,68.446 88.314 C 68.061 87.997,67.731 87.496,67.500 86.877 C 67.304 86.355,66.817 85.435,66.416 84.833 C 65.648 83.676,65.463 83.077,64.824 79.669 C 64.336 77.069,64.329 73.143,64.808 70.750 C 64.991 69.833,65.188 68.671,65.246 68.167 C 65.410 66.749,65.804 65.577,66.429 64.648 C 66.743 64.181,67.183 63.273,67.407 62.629 C 67.782 61.550,68.269 60.786,68.794 60.449 C 68.909 60.375,69.190 59.948,69.417 59.500 C 69.828 58.688,70.551 57.833,70.827 57.833 C 70.907 57.833,71.135 57.570,71.334 57.249 C 71.533 56.927,72.045 56.462,72.473 56.216 C 72.900 55.970,73.491 55.493,73.785 55.157 C 74.336 54.528,74.740 54.312,75.951 54.003 C 76.336 53.905,76.750 53.726,76.870 53.606 C 77.810 52.666,79.826 52.026,82.417 51.844 C 85.099 51.656,85.390 51.656,87.583 51.838 M181.260 52.409 C 181.671 53.036,181.548 56.654,181.099 57.150 C 180.646 57.649,177.697 57.670,176.892 57.179 C 175.878 56.561,175.614 53.360,176.499 52.418 C 177.101 51.777,180.842 51.770,181.260 52.409 M238.900 52.189 C 239.520 52.472,239.491 51.564,239.504 71.217 C 239.518 91.485,239.585 90.109,238.584 90.259 C 235.356 90.743,234.000 90.192,234.000 88.398 C 234.000 87.215,233.886 87.096,233.466 87.834 C 233.310 88.109,233.078 88.333,232.951 88.333 C 232.824 88.333,232.636 88.519,232.532 88.745 C 232.429 88.972,232.159 89.204,231.931 89.261 C 231.704 89.318,231.403 89.540,231.263 89.753 C 231.065 90.056,230.795 90.167,230.046 90.257 C 229.517 90.320,228.821 90.532,228.500 90.728 C 227.638 91.253,224.205 91.253,223.333 90.728 C 223.012 90.535,222.375 90.329,221.917 90.272 C 221.394 90.207,220.984 90.048,220.817 89.847 C 220.671 89.670,220.285 89.415,219.960 89.279 C 219.280 88.995,218.032 87.722,217.667 86.940 C 217.529 86.645,217.257 86.202,217.061 85.954 C 216.865 85.707,216.653 85.154,216.588 84.726 C 216.524 84.298,216.314 83.735,216.121 83.474 C 215.210 82.242,215.335 69.624,216.262 69.269 C 216.393 69.218,216.500 69.001,216.500 68.785 C 216.500 68.202,216.989 66.667,217.174 66.667 C 217.263 66.667,217.454 66.371,217.599 66.010 C 217.743 65.649,218.043 65.234,218.264 65.089 C 218.486 64.944,218.667 64.717,218.667 64.584 C 218.667 64.451,218.892 64.226,219.167 64.083 C 219.442 63.941,219.667 63.748,219.667 63.654 C 219.667 63.560,219.931 63.373,220.254 63.238 C 220.577 63.103,220.987 62.846,221.166 62.667 C 221.543 62.291,221.613 62.273,224.190 61.926 C 225.961 61.687,226.286 61.687,227.940 61.932 C 230.459 62.305,230.387 62.287,230.753 62.621 C 230.935 62.786,231.402 63.063,231.792 63.236 C 232.181 63.409,232.500 63.650,232.500 63.771 C 232.500 63.892,232.715 64.103,232.979 64.239 C 233.242 64.375,233.500 64.647,233.551 64.843 C 233.885 66.121,234.000 64.587,234.000 58.861 C 234.000 51.350,233.763 52.000,236.502 52.000 C 237.626 52.000,238.664 52.082,238.900 52.189 M337.220 52.339 L 337.651 52.679 337.701 58.742 C 337.754 65.295,337.754 65.298,338.479 64.523 C 338.747 64.235,339.049 64.000,339.150 64.000 C 339.251 64.000,339.333 63.886,339.333 63.747 C 339.333 63.608,339.615 63.365,339.958 63.206 C 340.302 63.047,340.621 62.879,340.667 62.833 C 341.488 62.012,344.841 61.571,347.583 61.923 C 350.143 62.252,350.194 62.264,350.587 62.619 C 350.768 62.783,351.192 63.044,351.527 63.199 C 351.863 63.354,352.185 63.627,352.241 63.806 C 352.298 63.985,352.473 64.164,352.631 64.206 C 352.788 64.247,353.028 64.499,353.163 64.765 C 353.299 65.032,353.580 65.482,353.788 65.765 C 354.046 66.118,354.198 66.619,354.266 67.349 C 354.321 67.936,354.509 68.813,354.683 69.298 C 354.981 70.126,355.000 70.771,355.000 79.987 L 355.000 89.795 354.404 90.078 C 353.605 90.457,349.913 90.397,349.663 90.000 C 349.569 89.851,349.504 85.959,349.503 80.323 C 349.500 71.213,349.489 70.873,349.164 70.200 C 348.979 69.817,348.783 69.182,348.729 68.788 C 348.550 67.476,347.778 66.864,345.811 66.472 L 344.156 66.142 342.537 66.510 C 340.691 66.931,339.406 67.846,338.819 69.157 C 338.653 69.529,338.441 69.833,338.349 69.833 C 337.880 69.833,337.794 71.270,337.711 80.475 L 337.628 89.867 337.069 90.100 C 336.167 90.477,332.800 90.423,332.440 90.026 C 332.056 89.601,332.093 52.740,332.479 52.276 C 332.854 51.824,336.629 51.875,337.220 52.339 M141.226 54.375 C 141.355 54.581,141.512 54.975,141.576 55.250 C 141.639 55.525,141.830 55.900,141.998 56.083 C 142.167 56.267,142.387 56.862,142.486 57.406 C 142.585 57.950,142.809 58.550,142.983 58.739 C 143.157 58.929,143.394 59.533,143.511 60.083 C 143.628 60.633,143.860 61.217,144.026 61.380 C 144.193 61.543,144.371 61.880,144.422 62.130 C 144.650 63.242,144.892 63.939,145.176 64.300 C 145.345 64.515,145.535 65.041,145.598 65.470 C 145.662 65.899,145.883 66.453,146.090 66.701 C 146.319 66.975,146.513 67.500,146.584 68.035 C 146.652 68.541,146.840 69.068,147.027 69.271 C 147.207 69.467,147.459 70.078,147.588 70.631 C 147.717 71.183,148.012 71.915,148.244 72.258 C 148.512 72.652,148.667 73.110,148.667 73.510 C 148.667 73.934,148.799 74.298,149.068 74.618 C 149.308 74.903,149.543 75.493,149.652 76.079 C 149.752 76.620,149.977 77.217,150.152 77.406 C 150.328 77.595,150.566 78.234,150.681 78.826 C 150.796 79.418,151.065 80.160,151.278 80.475 C 151.492 80.789,151.667 81.292,151.667 81.593 C 151.667 81.894,151.712 82.258,151.767 82.402 C 151.930 82.826,152.167 82.529,152.167 81.901 C 152.167 81.300,152.565 80.166,152.835 79.999 C 152.921 79.946,153.095 79.406,153.222 78.799 C 153.349 78.192,153.607 77.500,153.795 77.261 C 153.983 77.022,154.188 76.435,154.252 75.955 C 154.325 75.406,154.507 74.929,154.745 74.667 C 154.979 74.409,155.164 73.934,155.230 73.423 C 155.290 72.957,155.520 72.332,155.758 71.989 C 155.990 71.654,156.241 70.993,156.316 70.518 C 156.395 70.018,156.602 69.496,156.809 69.276 C 157.006 69.066,157.167 68.810,157.167 68.706 C 157.167 68.119,157.572 66.777,157.823 66.534 C 157.984 66.378,158.200 65.818,158.302 65.291 C 158.405 64.763,158.679 64.052,158.911 63.710 C 159.143 63.369,159.333 62.879,159.333 62.623 C 159.333 62.063,159.753 61.000,159.973 61.000 C 160.060 61.000,160.230 60.499,160.352 59.886 C 160.475 59.267,160.732 58.582,160.930 58.344 C 161.126 58.109,161.340 57.542,161.406 57.083 C 161.471 56.625,161.689 55.987,161.891 55.667 C 162.093 55.346,162.371 54.858,162.510 54.583 L 162.762 54.083 165.849 54.038 L 168.935 53.993 169.343 54.426 L 169.750 54.860 169.796 72.147 L 169.842 89.434 169.408 89.842 C 169.007 90.219,168.827 90.254,167.029 90.302 C 164.076 90.382,164.422 92.137,164.385 76.888 C 164.347 61.329,164.359 62.418,164.219 62.559 C 164.156 62.622,164.051 63.125,163.986 63.678 C 163.910 64.329,163.719 64.900,163.446 65.299 C 163.214 65.639,162.973 66.274,162.910 66.710 C 162.847 67.147,162.655 67.682,162.483 67.900 C 162.312 68.118,162.063 68.762,161.930 69.331 C 161.797 69.901,161.554 70.515,161.389 70.697 C 161.225 70.879,161.000 71.467,160.891 72.004 C 160.781 72.540,160.526 73.204,160.323 73.479 C 160.120 73.753,159.891 74.377,159.815 74.864 C 159.728 75.423,159.553 75.851,159.342 76.024 C 159.112 76.212,158.972 76.595,158.895 77.249 C 158.824 77.853,158.650 78.362,158.419 78.642 C 158.219 78.885,157.958 79.548,157.840 80.116 C 157.722 80.684,157.480 81.304,157.303 81.494 C 157.126 81.684,156.913 82.262,156.829 82.779 C 156.739 83.328,156.532 83.871,156.331 84.086 C 156.142 84.287,155.946 84.744,155.896 85.101 C 155.776 85.965,155.497 86.670,155.132 87.035 C 154.968 87.199,154.833 87.502,154.832 87.708 C 154.831 88.385,154.512 89.241,154.072 89.750 C 153.028 90.957,149.167 90.313,149.167 88.932 C 149.167 88.400,148.819 87.450,148.552 87.250 C 148.429 87.158,148.235 86.621,148.119 86.056 C 148.004 85.490,147.778 84.881,147.616 84.702 C 147.454 84.524,147.229 83.924,147.116 83.369 C 147.003 82.815,146.775 82.212,146.611 82.030 C 146.446 81.848,146.206 81.249,146.078 80.699 C 145.950 80.148,145.654 79.418,145.422 79.076 C 145.154 78.681,145.000 78.223,145.000 77.823 C 145.000 77.392,144.867 77.034,144.580 76.693 C 144.323 76.388,144.091 75.818,143.982 75.222 C 143.883 74.688,143.666 74.121,143.498 73.964 C 143.330 73.807,143.105 73.256,142.998 72.741 C 142.891 72.226,142.630 71.548,142.417 71.235 C 142.205 70.922,141.978 70.277,141.912 69.802 C 141.838 69.264,141.673 68.839,141.475 68.677 C 141.281 68.519,141.103 68.070,141.018 67.531 C 140.942 67.043,140.715 66.421,140.513 66.148 C 140.311 65.876,140.066 65.224,139.968 64.701 C 139.428 61.815,139.357 63.184,139.345 76.855 C 139.334 88.558,139.308 89.814,139.064 90.016 C 138.470 90.509,134.608 90.418,134.089 89.898 C 133.633 89.443,133.709 54.791,134.167 54.333 C 134.713 53.787,140.882 53.823,141.226 54.375 M273.182 54.268 C 273.581 54.749,273.500 58.139,273.083 58.386 C 272.852 58.523,270.994 58.609,267.000 58.667 L 261.250 58.750 261.210 74.250 L 261.170 89.750 260.817 90.042 C 260.307 90.462,256.266 90.475,255.805 90.058 C 255.514 89.794,255.500 89.084,255.500 74.224 L 255.500 58.667 249.667 58.667 C 242.632 58.667,243.167 58.856,243.167 56.370 C 243.167 55.165,243.234 54.644,243.426 54.370 L 243.686 54.000 258.322 54.000 C 271.570 54.000,272.980 54.025,273.182 54.268 M83.583 59.038 C 82.139 59.391,81.380 59.745,80.533 60.461 C 79.265 61.532,77.377 63.836,77.082 64.671 C 76.943 65.064,76.620 65.730,76.365 66.151 C 74.813 68.706,74.228 73.814,74.921 78.752 C 75.257 81.145,76.546 83.807,78.203 85.525 C 80.292 87.693,85.487 88.083,87.459 86.220 C 87.802 85.896,88.383 85.397,88.750 85.111 C 89.117 84.826,89.485 84.482,89.568 84.347 C 89.652 84.211,90.155 83.634,90.686 83.062 C 91.217 82.491,91.768 81.775,91.909 81.470 C 92.051 81.166,92.470 80.542,92.841 80.083 C 93.212 79.625,93.664 78.912,93.847 78.500 C 94.029 78.087,94.239 77.637,94.314 77.500 C 94.879 76.456,94.905 75.542,94.426 73.543 C 93.329 68.961,91.361 63.557,90.428 62.561 C 90.330 62.456,89.837 61.835,89.333 61.181 C 88.283 59.816,87.599 59.409,85.776 59.061 C 84.456 58.809,84.517 58.810,83.583 59.038 M203.417 61.930 C 205.287 62.163,206.348 62.454,206.667 62.821 C 206.713 62.874,207.031 63.047,207.375 63.206 C 207.719 63.365,208.000 63.610,208.000 63.751 C 208.000 63.892,208.185 64.092,208.412 64.195 C 208.650 64.303,208.903 64.624,209.012 64.953 C 209.116 65.267,209.302 65.562,209.425 65.610 C 209.715 65.721,209.954 66.492,210.088 67.750 C 210.146 68.300,210.319 69.012,210.472 69.333 C 210.757 69.931,211.018 88.409,210.756 89.451 C 210.595 90.094,209.766 90.334,207.714 90.331 C 204.925 90.327,205.167 91.296,205.166 80.136 L 205.165 70.917 204.753 69.750 C 204.526 69.108,204.339 68.450,204.337 68.286 C 204.312 66.192,198.098 65.519,196.050 67.388 C 195.731 67.679,195.367 67.975,195.240 68.047 C 195.114 68.119,194.883 68.456,194.728 68.797 C 194.572 69.138,194.297 69.583,194.115 69.787 C 193.609 70.353,193.522 71.999,193.510 81.190 C 193.498 91.178,193.769 90.218,190.932 90.308 C 188.641 90.381,188.286 90.312,188.029 89.746 C 187.679 88.979,187.756 62.862,188.109 62.471 C 188.347 62.209,188.658 62.167,190.353 62.167 C 192.640 62.167,192.653 62.176,192.820 63.917 C 192.934 65.097,193.718 65.501,194.133 64.592 C 194.239 64.358,194.392 64.167,194.472 64.167 C 194.552 64.167,194.850 63.944,195.135 63.671 C 195.420 63.399,195.844 63.129,196.077 63.070 C 196.310 63.012,196.500 62.900,196.500 62.821 C 196.500 62.455,197.615 62.178,201.083 61.683 C 201.175 61.670,202.225 61.781,203.417 61.930 M291.396 62.029 C 292.881 62.178,293.506 62.313,293.896 62.572 C 294.182 62.761,294.717 63.021,295.083 63.149 C 295.781 63.391,295.899 63.482,297.250 64.823 C 298.617 66.180,298.964 66.623,299.081 67.158 C 299.143 67.438,299.260 67.667,299.342 67.667 C 299.575 67.667,299.948 68.508,300.081 69.333 C 300.148 69.746,300.342 70.346,300.513 70.667 C 301.202 71.962,301.397 77.012,300.784 77.705 C 300.765 77.726,296.475 77.782,291.250 77.830 L 281.750 77.917 281.767 79.272 C 281.780 80.377,281.850 80.722,282.143 81.133 C 282.341 81.411,282.550 81.982,282.607 82.401 C 282.675 82.899,282.878 83.353,283.190 83.707 C 284.668 85.383,284.944 85.648,285.219 85.657 C 285.614 85.670,286.199 85.986,286.444 86.318 C 286.825 86.835,291.090 86.678,291.898 86.117 C 292.255 85.869,292.692 85.667,292.870 85.667 C 293.206 85.667,294.999 83.916,295.460 83.137 C 295.883 82.422,297.686 82.431,298.602 83.152 C 298.846 83.343,299.183 83.500,299.352 83.500 C 300.192 83.500,300.323 85.360,299.528 85.992 C 299.349 86.134,299.080 86.494,298.930 86.792 C 298.781 87.090,298.560 87.333,298.439 87.333 C 298.319 87.333,298.138 87.514,298.037 87.736 C 297.936 87.957,297.706 88.185,297.525 88.242 C 297.344 88.299,297.082 88.522,296.941 88.736 C 296.801 88.950,296.484 89.176,296.237 89.238 C 295.990 89.300,295.538 89.541,295.233 89.774 C 294.824 90.086,294.403 90.221,293.631 90.286 C 292.990 90.340,292.357 90.512,292.000 90.729 C 291.141 91.251,286.931 91.247,285.917 90.724 C 285.550 90.535,284.813 90.337,284.280 90.284 C 283.606 90.218,283.142 90.060,282.761 89.770 C 282.459 89.539,282.010 89.300,281.763 89.238 C 281.516 89.176,281.197 88.947,281.055 88.730 C 280.912 88.512,280.704 88.333,280.594 88.333 C 280.414 88.333,279.927 87.843,278.458 86.180 C 278.206 85.894,278.000 85.567,278.000 85.452 C 278.000 85.338,277.808 84.961,277.573 84.616 C 277.328 84.255,277.078 83.566,276.987 82.998 C 276.899 82.454,276.660 81.726,276.455 81.380 C 275.744 80.176,275.845 71.649,276.580 70.837 C 276.725 70.677,276.912 70.127,276.995 69.614 C 277.152 68.648,277.414 68.000,277.646 68.000 C 277.720 68.000,277.870 67.703,277.979 67.339 C 278.087 66.976,278.313 66.582,278.480 66.464 C 278.647 66.346,278.909 66.006,279.063 65.708 C 279.216 65.410,279.454 65.167,279.591 65.167 C 279.728 65.167,279.927 64.977,280.032 64.746 C 280.138 64.515,280.395 64.282,280.603 64.230 C 280.812 64.178,281.099 63.958,281.241 63.741 C 281.387 63.517,281.804 63.260,282.208 63.145 C 282.598 63.034,283.089 62.790,283.299 62.603 C 283.681 62.261,288.223 61.607,289.083 61.769 C 289.267 61.804,290.307 61.921,291.396 62.029 M319.000 61.978 C 321.047 62.248,322.000 62.533,322.000 62.873 C 322.000 62.943,322.110 63.000,322.244 63.000 C 322.649 63.000,323.667 63.547,323.667 63.765 C 323.667 63.876,323.885 64.043,324.151 64.136 C 324.417 64.229,324.684 64.458,324.743 64.644 C 324.802 64.830,324.993 65.028,325.167 65.083 C 325.341 65.139,325.535 65.347,325.598 65.547 C 325.662 65.747,325.916 66.099,326.164 66.331 C 326.419 66.569,326.666 67.026,326.733 67.385 C 326.798 67.733,326.998 68.164,327.176 68.343 C 327.410 68.577,327.500 68.897,327.500 69.496 C 327.500 70.686,327.260 70.800,324.613 70.865 C 322.218 70.923,322.142 70.890,321.919 69.705 C 321.856 69.369,321.661 68.994,321.486 68.871 C 321.310 68.748,321.167 68.555,321.167 68.441 C 321.167 66.414,314.629 65.594,312.865 67.399 C 311.619 68.674,311.438 68.936,311.304 69.654 C 311.227 70.067,310.996 70.707,310.790 71.077 C 310.201 72.139,310.215 79.840,310.808 81.045 C 311.023 81.481,311.240 82.156,311.291 82.545 C 311.343 82.941,311.573 83.489,311.816 83.796 C 312.632 84.822,313.540 85.667,313.828 85.667 C 314.165 85.667,315.117 86.118,315.257 86.344 C 315.476 86.698,317.973 86.522,318.633 86.105 C 318.977 85.887,319.482 85.656,319.754 85.590 C 320.499 85.411,322.000 83.536,322.000 82.784 C 322.000 81.654,322.479 81.332,324.137 81.346 C 326.029 81.361,327.323 81.553,327.523 81.847 C 327.843 82.317,327.577 84.111,327.103 84.674 C 326.863 84.959,326.667 85.323,326.667 85.484 C 326.667 86.166,323.692 89.333,323.051 89.333 C 322.907 89.333,322.621 89.514,322.416 89.735 C 322.140 90.033,321.790 90.167,321.063 90.253 C 320.524 90.316,319.821 90.527,319.500 90.722 C 318.640 91.243,315.024 91.244,314.159 90.723 C 313.822 90.520,313.135 90.332,312.503 90.270 C 311.648 90.186,311.343 90.077,311.038 89.749 C 310.826 89.520,310.549 89.333,310.421 89.333 C 310.067 89.333,308.127 87.718,307.750 87.109 C 307.567 86.813,307.248 86.405,307.042 86.202 C 306.835 85.999,306.667 85.694,306.667 85.524 C 306.667 85.354,306.486 85.021,306.266 84.783 C 305.908 84.397,305.500 83.115,305.500 82.380 C 305.500 82.231,305.400 81.991,305.279 81.846 C 304.396 80.796,304.387 71.549,305.269 70.818 C 305.396 70.712,305.500 70.424,305.500 70.177 C 305.500 69.572,305.976 68.000,306.159 68.000 C 306.240 68.000,306.437 67.656,306.598 67.235 C 306.758 66.815,307.057 66.361,307.262 66.227 C 307.467 66.092,307.681 65.799,307.737 65.575 C 307.794 65.350,307.902 65.167,307.978 65.167 C 308.053 65.167,308.380 64.923,308.703 64.625 C 309.984 63.444,310.350 63.169,310.780 63.061 C 311.026 62.999,311.473 62.782,311.774 62.578 C 312.174 62.306,312.690 62.175,313.702 62.088 C 314.462 62.023,315.383 61.910,315.750 61.837 C 316.670 61.655,316.502 61.648,319.000 61.978 M181.241 62.537 C 181.545 62.972,181.639 89.522,181.337 90.000 C 181.102 90.373,177.615 90.456,176.783 90.108 C 175.943 89.757,175.983 90.515,176.036 76.027 L 176.083 62.971 176.551 62.569 C 177.243 61.974,180.829 61.950,181.241 62.537 M225.917 65.943 C 225.733 65.993,225.471 66.129,225.333 66.244 C 225.196 66.359,224.718 66.557,224.272 66.685 C 223.719 66.843,223.416 67.033,223.322 67.282 C 223.245 67.482,223.032 67.727,222.847 67.826 C 222.660 67.926,222.428 68.315,222.324 68.701 C 222.221 69.084,221.950 69.754,221.722 70.190 C 220.919 71.725,220.988 81.546,221.808 82.589 C 221.993 82.824,222.192 83.256,222.251 83.549 C 222.441 84.497,222.518 84.667,222.757 84.667 C 222.886 84.667,223.108 84.892,223.250 85.167 C 223.409 85.474,223.639 85.667,223.849 85.667 C 224.227 85.667,224.792 85.935,225.133 86.276 C 225.575 86.718,228.705 86.577,229.433 86.083 C 229.770 85.854,230.189 85.667,230.363 85.667 C 230.713 85.667,232.167 84.261,232.167 83.922 C 232.167 83.804,232.320 83.604,232.508 83.479 C 232.767 83.306,232.894 82.946,233.031 82.000 C 233.131 81.313,233.371 80.412,233.565 80.000 C 234.099 78.862,234.096 73.295,233.561 72.167 C 233.365 71.754,233.124 70.892,233.025 70.250 C 232.910 69.508,232.736 68.992,232.547 68.833 C 232.384 68.696,232.144 68.377,232.014 68.125 C 231.883 67.873,231.705 67.667,231.616 67.667 C 231.528 67.667,231.297 67.490,231.103 67.275 C 230.909 67.059,230.388 66.785,229.945 66.666 C 229.502 66.547,229.033 66.342,228.902 66.212 C 228.654 65.963,226.535 65.772,225.917 65.943 M287.417 65.974 C 287.233 66.044,286.798 66.231,286.449 66.390 C 286.101 66.549,285.597 66.722,285.331 66.776 C 285.064 66.829,284.729 67.051,284.586 67.270 C 284.443 67.488,284.221 67.667,284.093 67.667 C 283.966 67.667,283.761 67.893,283.639 68.169 C 283.517 68.445,283.289 68.711,283.134 68.760 C 282.833 68.856,282.762 69.026,282.584 70.078 C 282.522 70.441,282.313 70.961,282.119 71.233 C 281.889 71.556,281.764 71.992,281.759 72.489 L 281.750 73.250 288.542 73.294 L 295.333 73.337 295.333 72.291 C 295.333 71.467,295.250 71.120,294.941 70.664 C 294.726 70.344,294.500 69.821,294.441 69.500 C 294.258 68.520,292.603 66.935,291.395 66.584 C 290.857 66.428,290.368 66.222,290.309 66.126 C 290.178 65.916,287.885 65.795,287.417 65.974 M114.024 109.163 C 116.438 109.915,116.891 111.082,114.968 111.594 C 113.591 111.960,48.304 111.950,48.000 111.583 C 47.650 111.162,47.871 109.507,48.326 109.139 C 48.940 108.642,112.424 108.665,114.024 109.163 " stroke="none" fill="#0c2433" fill-rule="evenodd"></path><path id="path1" d="M119.000 39.999 C 118.726 40.511,118.846 101.959,119.121 102.441 C 119.506 103.112,120.280 103.227,120.399 102.631 C 120.531 101.970,120.531 40.275,120.399 39.930 C 120.245 39.531,119.224 39.581,119.000 39.999 M177.163 53.094 C 176.898 53.790,176.961 55.870,177.259 56.296 C 177.686 56.905,180.602 56.859,180.837 56.239 C 181.020 55.758,181.054 53.980,180.896 53.188 L 180.792 52.667 179.058 52.667 C 177.351 52.667,177.323 52.673,177.163 53.094 M234.604 53.188 C 234.547 53.474,234.500 56.251,234.500 59.360 C 234.500 65.048,234.394 66.167,233.854 66.167 C 233.639 66.167,233.000 65.348,233.000 65.072 C 233.000 64.953,232.852 64.809,232.671 64.751 C 232.490 64.694,232.206 64.474,232.040 64.263 C 231.735 63.875,230.838 63.333,230.502 63.333 C 230.402 63.333,230.092 63.165,229.813 62.958 C 229.328 62.600,229.162 62.583,226.111 62.583 L 222.917 62.583 221.649 63.208 C 219.529 64.254,217.000 67.333,217.000 68.869 C 217.000 69.026,216.804 69.738,216.565 70.452 C 215.785 72.782,215.800 80.814,216.588 82.392 C 216.719 82.656,216.873 83.219,216.930 83.644 C 216.987 84.069,217.173 84.679,217.342 85.000 C 217.512 85.321,217.796 85.883,217.973 86.250 C 218.327 86.982,219.718 88.434,220.451 88.836 C 220.707 88.977,221.132 89.236,221.396 89.412 C 222.853 90.386,229.089 90.388,230.417 89.415 C 230.692 89.213,231.067 89.000,231.250 88.942 C 231.713 88.795,232.875 87.694,233.256 87.042 C 233.888 85.959,234.667 86.709,234.667 88.399 C 234.667 89.650,234.945 89.834,236.829 89.831 C 237.610 89.829,238.348 89.766,238.467 89.691 C 238.816 89.469,238.758 53.827,238.408 53.150 L 238.158 52.667 236.433 52.667 L 234.708 52.667 234.604 53.188 M332.838 52.990 C 332.721 53.210,332.679 59.164,332.708 71.532 L 332.750 89.750 334.458 89.797 C 337.112 89.871,336.833 90.866,336.833 81.309 L 336.833 73.130 337.259 71.364 C 337.828 69.002,339.660 66.340,340.722 66.332 C 340.829 66.331,341.292 66.146,341.750 65.920 C 344.138 64.746,348.059 65.730,349.038 67.750 C 349.216 68.117,349.486 68.642,349.639 68.917 C 349.888 69.365,349.922 70.453,349.965 79.407 C 349.998 86.277,350.069 89.466,350.193 89.615 C 350.435 89.906,353.678 89.922,353.967 89.633 C 354.233 89.367,354.246 72.583,353.982 69.545 C 353.815 67.631,353.740 67.310,353.232 66.360 C 352.921 65.778,352.667 65.240,352.667 65.164 C 352.667 64.863,351.258 63.668,350.688 63.486 C 350.356 63.379,349.909 63.133,349.695 62.938 C 349.101 62.395,342.623 62.391,341.889 62.932 C 341.629 63.124,341.154 63.368,340.833 63.475 C 340.504 63.585,339.598 64.285,338.750 65.085 C 337.925 65.863,337.156 66.500,337.042 66.500 C 336.775 66.500,336.788 66.914,336.831 59.816 C 336.863 54.460,336.834 53.652,336.596 53.191 L 336.325 52.667 334.668 52.667 C 333.199 52.667,332.992 52.703,332.838 52.990 M135.000 54.663 C 134.589 54.923,134.536 89.325,134.945 89.625 C 135.309 89.891,137.669 89.901,138.242 89.640 L 138.667 89.446 138.647 78.265 C 138.636 72.115,138.579 65.687,138.522 63.980 C 138.464 62.273,138.441 60.754,138.471 60.605 C 138.558 60.165,138.834 60.293,138.939 60.822 C 138.993 61.091,139.252 61.503,139.515 61.737 C 139.778 61.971,140.031 62.332,140.078 62.540 C 140.126 62.747,140.244 63.292,140.341 63.750 C 140.439 64.208,140.632 64.758,140.772 64.972 C 140.911 65.185,141.136 65.785,141.271 66.305 C 141.406 66.825,141.666 67.503,141.848 67.811 C 142.030 68.120,142.261 68.758,142.361 69.228 C 142.462 69.698,142.679 70.256,142.844 70.466 C 143.009 70.677,143.191 71.089,143.249 71.383 C 143.389 72.095,143.677 72.860,143.919 73.167 C 144.027 73.304,144.209 73.792,144.323 74.250 C 144.437 74.708,144.677 75.362,144.855 75.702 C 145.034 76.042,145.297 76.717,145.440 77.202 C 145.582 77.687,145.837 78.311,146.007 78.589 C 146.177 78.867,146.397 79.459,146.497 79.905 C 146.597 80.351,146.820 80.914,146.992 81.155 C 147.164 81.397,147.358 81.892,147.422 82.256 C 147.487 82.619,147.715 83.254,147.929 83.667 C 148.143 84.079,148.403 84.754,148.507 85.167 C 148.612 85.579,148.834 86.142,149.001 86.417 C 149.168 86.692,149.419 87.358,149.559 87.897 C 149.969 89.479,150.451 89.857,151.985 89.798 L 153.228 89.750 153.697 88.951 C 153.955 88.512,154.251 87.799,154.355 87.368 C 154.459 86.936,154.682 86.354,154.849 86.074 C 155.017 85.793,155.261 85.156,155.391 84.657 C 155.521 84.158,155.778 83.487,155.962 83.167 C 156.146 82.846,156.388 82.187,156.500 81.702 C 156.611 81.217,156.807 80.716,156.935 80.588 C 157.063 80.461,157.280 79.920,157.417 79.386 C 157.555 78.853,157.854 78.048,158.083 77.597 C 158.313 77.146,158.501 76.621,158.502 76.430 C 158.503 76.239,158.681 75.774,158.897 75.396 C 159.113 75.018,159.385 74.306,159.501 73.813 C 159.617 73.320,159.884 72.617,160.093 72.250 C 160.303 71.883,160.529 71.283,160.594 70.917 C 160.659 70.550,160.850 70.055,161.017 69.816 C 161.184 69.578,161.403 69.018,161.503 68.572 C 161.603 68.126,161.829 67.527,162.005 67.242 C 162.182 66.956,162.446 66.255,162.592 65.683 C 162.739 65.111,163.003 64.399,163.179 64.101 C 163.354 63.803,163.548 63.189,163.610 62.738 C 163.721 61.917,164.092 60.833,164.261 60.833 C 164.791 60.833,164.833 61.929,164.833 75.711 C 164.833 86.162,164.881 89.481,165.033 89.633 C 165.161 89.761,165.811 89.833,166.833 89.833 C 167.856 89.833,168.506 89.761,168.633 89.633 C 168.891 89.376,168.926 55.598,168.669 54.923 L 168.505 54.492 165.794 54.538 L 163.083 54.583 162.826 55.333 C 162.685 55.746,162.435 56.336,162.271 56.644 C 162.106 56.952,161.862 57.625,161.729 58.139 C 161.595 58.653,161.378 59.192,161.248 59.336 C 161.117 59.480,160.887 60.082,160.735 60.673 C 160.584 61.265,160.327 61.917,160.166 62.122 C 160.004 62.328,159.818 62.852,159.753 63.286 C 159.688 63.721,159.501 64.266,159.337 64.497 C 159.173 64.728,158.906 65.404,158.744 66.000 C 158.582 66.596,158.350 67.199,158.230 67.341 C 158.109 67.482,157.887 68.082,157.736 68.674 C 157.585 69.266,157.319 69.950,157.146 70.194 C 156.972 70.439,156.787 70.889,156.735 71.194 C 156.612 71.902,156.311 72.721,156.126 72.849 C 156.047 72.903,155.867 73.387,155.727 73.925 C 155.587 74.462,155.291 75.242,155.069 75.658 C 154.848 76.074,154.667 76.566,154.667 76.751 C 154.667 76.937,154.440 77.552,154.164 78.119 C 153.888 78.685,153.592 79.517,153.506 79.966 C 153.421 80.416,153.206 81.039,153.027 81.350 C 152.849 81.662,152.653 82.207,152.590 82.562 C 152.290 84.278,151.648 84.209,151.228 82.417 C 151.163 82.142,150.975 81.694,150.810 81.422 C 150.645 81.150,150.464 80.588,150.409 80.172 C 150.299 79.339,150.011 78.469,149.798 78.321 C 149.722 78.269,149.520 77.735,149.348 77.135 C 149.176 76.534,148.914 75.857,148.765 75.630 C 148.617 75.403,148.380 74.775,148.239 74.234 C 148.098 73.693,147.869 73.075,147.729 72.862 C 147.589 72.648,147.365 72.050,147.230 71.533 C 147.095 71.016,146.879 70.476,146.750 70.333 C 146.621 70.190,146.401 69.635,146.261 69.098 C 146.121 68.561,145.869 67.888,145.700 67.603 C 145.532 67.317,145.301 66.714,145.187 66.263 C 145.074 65.813,144.806 65.138,144.592 64.763 C 144.379 64.389,144.152 63.786,144.088 63.422 C 144.024 63.059,143.837 62.571,143.673 62.339 C 143.509 62.107,143.323 61.654,143.260 61.333 C 143.110 60.565,142.812 59.799,142.567 59.548 C 142.458 59.437,142.276 58.949,142.162 58.465 C 142.048 57.980,141.783 57.283,141.573 56.917 C 141.363 56.550,141.140 55.967,141.076 55.621 C 140.889 54.596,140.604 54.500,137.755 54.503 C 136.377 54.504,135.137 54.576,135.000 54.663 M243.884 54.775 C 243.826 54.927,243.772 55.691,243.764 56.474 C 243.746 58.270,243.222 58.129,250.030 58.150 C 254.744 58.164,255.511 58.202,255.738 58.429 C 255.972 58.663,256.000 60.319,256.000 74.161 C 256.000 88.114,256.026 89.641,256.264 89.732 C 256.707 89.902,260.001 89.845,260.344 89.661 C 260.659 89.492,260.667 89.143,260.667 74.087 L 260.667 58.686 261.037 58.426 C 261.353 58.205,262.162 58.166,266.495 58.165 C 269.294 58.164,271.865 58.117,272.208 58.060 L 272.833 57.956 272.833 56.401 C 272.833 55.033,272.794 54.824,272.511 54.673 C 271.894 54.342,244.012 54.443,243.884 54.775 M198.336 62.615 C 198.108 62.662,197.733 62.831,197.502 62.991 C 197.272 63.151,196.840 63.365,196.543 63.465 C 196.245 63.566,195.728 63.915,195.392 64.241 C 195.057 64.567,194.719 64.833,194.641 64.833 C 194.563 64.833,194.500 64.912,194.500 65.008 C 194.500 65.104,194.129 65.554,193.675 66.007 L 192.851 66.832 192.592 66.462 C 192.424 66.221,192.333 65.720,192.333 65.024 C 192.333 64.436,192.246 63.663,192.139 63.305 L 191.944 62.656 190.266 62.703 L 188.588 62.750 188.503 63.333 C 188.455 63.654,188.454 69.729,188.500 76.833 L 188.583 89.750 190.309 89.798 C 192.739 89.865,192.499 90.759,192.503 81.605 C 192.506 75.287,192.555 73.538,192.753 72.667 C 192.889 72.071,193.085 71.117,193.190 70.548 C 193.295 69.978,193.512 69.371,193.673 69.199 C 193.833 69.026,194.086 68.650,194.235 68.363 C 194.593 67.671,195.811 66.526,196.333 66.393 C 196.563 66.334,197.087 66.109,197.499 65.893 C 199.803 64.684,203.639 65.665,204.774 67.753 C 205.757 69.564,205.722 69.162,205.823 79.833 L 205.917 89.750 207.642 89.798 C 210.125 89.866,209.869 91.189,209.795 78.677 C 209.730 67.675,209.707 67.279,209.087 66.500 C 208.978 66.362,208.786 65.987,208.660 65.667 C 208.363 64.909,207.164 63.706,206.465 63.465 C 206.164 63.361,205.704 63.120,205.445 62.930 C 204.976 62.586,199.633 62.349,198.336 62.615 M285.167 62.657 C 284.846 62.723,284.284 62.939,283.919 63.138 C 283.554 63.337,283.163 63.500,283.050 63.500 C 282.786 63.500,280.916 64.707,280.411 65.203 C 280.198 65.412,279.944 65.658,279.847 65.750 C 279.389 66.180,278.524 67.507,278.342 68.058 C 278.231 68.394,278.028 68.782,277.891 68.918 C 276.961 69.848,276.136 78.323,276.843 79.678 C 276.918 79.822,277.098 80.623,277.243 81.459 C 277.408 82.409,277.693 83.333,278.003 83.923 C 278.276 84.442,278.500 84.959,278.500 85.071 C 278.500 85.183,278.688 85.451,278.917 85.667 C 279.146 85.882,279.333 86.132,279.333 86.221 C 279.333 86.591,281.774 88.606,282.543 88.871 C 282.840 88.974,283.278 89.200,283.517 89.375 C 284.891 90.382,293.019 90.378,294.457 89.369 C 294.710 89.192,295.189 88.958,295.522 88.850 C 295.856 88.742,296.327 88.488,296.570 88.285 C 297.460 87.543,298.667 86.264,298.667 86.063 C 298.667 85.950,298.783 85.741,298.924 85.599 C 299.877 84.647,299.735 84.114,298.459 83.840 C 297.990 83.739,297.526 83.595,297.428 83.519 C 296.810 83.038,296.171 83.166,295.734 83.859 C 293.242 87.806,287.008 88.463,283.634 85.134 C 281.669 83.194,280.440 78.788,281.494 77.458 L 281.858 77.000 291.092 77.000 L 300.327 77.000 300.435 76.571 C 300.589 75.957,300.421 72.726,300.222 72.467 C 300.066 72.265,299.832 71.277,299.587 69.787 C 299.530 69.440,299.299 68.886,299.075 68.555 C 298.850 68.224,298.667 67.840,298.667 67.701 C 298.667 67.242,296.406 64.500,296.027 64.500 C 295.955 64.500,295.725 64.340,295.515 64.145 C 295.305 63.949,294.635 63.606,294.025 63.382 C 293.415 63.157,292.654 62.870,292.333 62.744 C 291.702 62.496,286.280 62.430,285.167 62.657 M313.376 62.655 C 313.079 62.730,312.741 62.869,312.626 62.964 C 312.511 63.059,312.042 63.280,311.583 63.454 C 310.695 63.793,309.000 64.928,309.000 65.186 C 309.000 65.271,308.814 65.425,308.587 65.529 C 308.359 65.632,308.126 65.875,308.067 66.067 C 308.009 66.259,307.828 66.567,307.665 66.750 C 307.091 67.394,306.037 69.897,305.920 70.895 C 305.856 71.433,305.689 72.183,305.547 72.562 C 305.149 73.629,305.063 77.765,305.409 79.250 C 305.558 79.892,305.781 81.018,305.904 81.752 C 306.045 82.591,306.321 83.445,306.647 84.048 C 306.933 84.576,307.167 85.089,307.167 85.189 C 307.167 85.493,308.882 87.433,309.945 88.332 C 312.151 90.198,319.468 90.862,321.604 89.389 C 321.868 89.207,322.328 88.961,322.627 88.841 C 323.733 88.400,326.009 85.870,326.314 84.743 C 326.412 84.380,326.608 83.918,326.750 83.716 C 327.246 83.010,327.159 82.112,326.583 81.984 C 325.615 81.769,323.667 81.824,323.170 82.082 C 322.675 82.338,322.593 82.494,322.411 83.520 C 322.352 83.853,322.089 84.360,321.825 84.649 C 321.562 84.937,321.287 85.278,321.215 85.406 C 321.143 85.534,320.596 85.926,320.000 86.277 L 318.917 86.915 316.750 86.916 L 314.583 86.917 313.375 86.201 C 312.710 85.807,312.167 85.432,312.167 85.366 C 312.167 85.300,311.906 84.947,311.587 84.582 C 311.267 84.216,311.005 83.818,311.003 83.698 C 311.001 83.578,310.817 83.090,310.592 82.615 C 309.553 80.411,309.420 71.458,310.403 69.917 C 310.520 69.733,310.714 69.286,310.833 68.922 C 311.119 68.051,312.530 66.569,313.309 66.322 C 313.643 66.216,314.104 66.007,314.333 65.856 C 315.159 65.316,318.190 65.473,319.525 66.125 C 321.018 66.856,322.126 68.142,322.417 69.480 L 322.585 70.250 324.084 70.301 C 326.262 70.374,326.667 70.272,326.667 69.652 C 326.667 68.913,326.031 67.080,325.658 66.742 C 325.479 66.581,325.333 66.364,325.333 66.261 C 325.333 66.090,324.197 64.977,323.066 64.041 C 322.816 63.834,322.313 63.584,321.948 63.486 C 321.583 63.388,321.065 63.144,320.795 62.945 C 320.268 62.555,314.650 62.335,313.376 62.655 M177.333 62.830 C 177.114 62.968,177.083 64.656,177.083 76.369 L 177.083 89.750 178.903 89.798 C 180.247 89.833,180.759 89.789,180.859 89.631 C 181.058 89.318,181.037 63.618,180.837 63.094 C 180.664 62.637,177.961 62.433,177.333 62.830 M228.904 65.497 C 229.448 65.586,229.938 65.733,229.994 65.823 C 230.049 65.913,230.390 66.110,230.751 66.261 C 231.726 66.669,233.013 68.101,233.352 69.155 C 233.457 69.482,233.733 70.200,233.966 70.750 C 234.498 72.007,234.610 79.560,234.118 81.000 C 233.489 82.839,233.048 83.965,232.873 84.182 C 231.964 85.308,231.366 85.880,230.853 86.114 C 230.522 86.265,230.132 86.489,229.987 86.611 C 228.584 87.795,224.334 87.097,222.656 85.406 C 219.665 82.393,219.621 69.774,222.592 67.190 C 222.816 66.995,223.000 66.765,223.000 66.679 C 223.000 66.593,223.169 66.470,223.375 66.406 C 223.581 66.342,223.968 66.136,224.235 65.947 C 225.061 65.365,226.974 65.181,228.904 65.497 M292.047 66.054 C 293.312 66.696,294.549 67.920,294.856 68.833 C 294.964 69.154,295.188 69.604,295.354 69.833 C 295.541 70.092,295.723 70.810,295.835 71.729 C 296.113 74.023,296.767 73.833,288.567 73.833 L 281.686 73.833 281.425 73.462 C 280.863 72.659,281.689 69.521,282.819 68.167 C 283.534 67.310,284.420 66.495,284.746 66.394 C 284.932 66.337,285.304 66.134,285.575 65.943 C 286.764 65.105,290.296 65.166,292.047 66.054 M48.402 110.416 C 48.153 111.408,45.502 111.333,80.901 111.333 C 103.611 111.333,113.452 111.280,113.781 111.154 L 114.250 110.975 113.706 110.488 L 113.161 110.000 80.834 110.000 L 48.506 110.000 48.402 110.416 " stroke="none" fill="#eceae8" fill-rule="evenodd"></path><path id="path2" d="M82.872 53.169 C 82.205 53.241,81.350 53.424,80.972 53.575 C 80.593 53.727,79.563 54.079,78.683 54.358 C 76.983 54.896,75.278 55.750,74.762 56.321 C 74.589 56.511,74.388 56.667,74.315 56.667 C 73.910 56.667,70.667 59.682,70.667 60.058 C 70.667 60.221,69.840 61.500,69.412 62.000 C 68.844 62.663,68.374 63.578,68.023 64.705 C 67.844 65.280,67.464 66.327,67.180 67.032 C 65.526 71.136,65.595 79.768,67.307 82.861 C 67.577 83.350,68.013 84.341,68.274 85.064 C 68.562 85.859,68.936 86.551,69.221 86.814 C 69.480 87.054,69.922 87.587,70.204 88.000 C 70.698 88.723,71.445 89.498,71.651 89.501 C 71.705 89.502,72.013 89.752,72.335 90.057 C 75.586 93.140,82.803 94.334,87.583 92.580 C 88.408 92.277,89.271 91.975,89.500 91.910 C 91.349 91.380,96.661 87.176,96.666 86.240 C 96.669 85.665,97.604 85.167,98.680 85.167 C 99.974 85.167,100.090 85.270,101.017 87.240 C 101.731 88.758,103.348 90.507,104.667 91.187 C 106.507 92.136,109.919 91.204,108.841 90.047 C 108.279 89.443,107.730 88.420,107.341 87.250 C 107.128 86.608,106.628 85.521,106.230 84.833 C 105.832 84.146,105.289 82.908,105.023 82.083 C 104.757 81.258,104.276 79.946,103.954 79.167 C 102.511 75.668,102.999 73.533,106.388 68.515 C 106.909 67.744,107.414 66.820,107.511 66.460 C 107.607 66.101,108.007 65.372,108.399 64.839 C 108.791 64.307,109.286 63.394,109.499 62.811 C 109.712 62.227,110.150 61.376,110.471 60.919 C 110.793 60.462,111.343 59.350,111.695 58.447 C 112.086 57.443,112.531 56.610,112.841 56.300 C 113.503 55.638,113.260 55.210,111.982 54.784 C 109.855 54.075,106.684 56.174,105.238 59.250 C 104.893 59.983,104.443 60.851,104.239 61.179 C 104.034 61.506,103.744 62.143,103.593 62.595 C 102.866 64.776,102.238 65.668,101.429 65.665 C 99.721 65.659,99.497 65.446,98.510 62.884 C 98.222 62.138,97.841 61.343,97.664 61.117 C 97.486 60.892,96.995 60.117,96.573 59.395 C 95.349 57.306,93.215 55.342,91.463 54.694 C 90.939 54.500,90.151 54.155,89.713 53.927 C 88.360 53.222,85.412 52.895,82.872 53.169 M88.050 58.078 C 89.406 58.797,89.790 59.089,90.168 59.687 C 90.421 60.088,90.905 60.679,91.242 61.000 C 91.579 61.321,91.975 61.846,92.122 62.167 C 92.269 62.487,92.751 63.523,93.194 64.468 C 93.671 65.484,94.244 67.117,94.598 68.468 C 94.927 69.723,95.349 71.162,95.534 71.667 C 96.459 74.177,96.521 74.434,96.512 75.697 C 96.502 77.064,96.388 77.441,95.588 78.750 C 95.308 79.208,94.929 79.873,94.747 80.226 C 94.566 80.580,94.149 81.180,93.822 81.560 C 93.495 81.939,92.975 82.625,92.668 83.083 C 89.730 87.457,84.224 90.186,81.000 88.866 C 80.771 88.773,80.133 88.525,79.583 88.315 C 77.806 87.638,76.983 86.992,75.905 85.427 C 74.366 83.193,74.092 82.497,73.507 79.333 C 73.397 78.737,73.238 77.890,73.153 77.450 C 72.947 76.374,72.959 73.288,73.174 72.069 C 74.042 67.161,74.347 66.174,75.592 64.250 C 76.066 63.517,76.586 62.635,76.747 62.290 C 77.000 61.748,77.700 60.991,78.119 60.808 C 78.191 60.776,78.541 60.387,78.898 59.944 C 79.413 59.304,79.888 58.970,81.220 58.315 C 84.570 56.668,85.341 56.641,88.050 58.078 " stroke="none" fill="#bc611c" fill-rule="evenodd"></path><path id="path3" d="M84.833 38.840 C 52.905 38.929,50.406 38.969,50.547 39.391 C 50.676 39.779,52.351 39.801,84.338 39.817 C 117.019 39.833,117.261 39.836,117.544 40.166 C 117.810 40.476,117.832 42.477,117.882 70.291 C 117.938 101.747,117.949 102.186,118.699 103.781 C 119.335 105.134,120.453 105.252,120.778 104.000 C 121.043 102.980,121.087 40.084,120.823 39.389 C 120.578 38.745,120.395 38.666,119.250 38.710 C 118.700 38.731,103.213 38.790,84.833 38.840 M120.399 39.930 C 120.531 40.275,120.531 101.970,120.399 102.631 C 120.280 103.227,119.506 103.112,119.121 102.441 C 118.846 101.959,118.726 40.511,119.000 39.999 C 119.224 39.581,120.245 39.531,120.399 39.930 M176.499 52.418 C 175.614 53.360,175.878 56.561,176.892 57.179 C 177.697 57.670,180.646 57.649,181.099 57.150 C 181.548 56.654,181.671 53.036,181.260 52.409 C 180.842 51.770,177.101 51.777,176.499 52.418 M234.259 52.370 C 234.036 52.689,234.000 53.591,234.000 58.861 C 234.000 64.587,233.885 66.121,233.551 64.843 C 233.500 64.647,233.242 64.375,232.979 64.239 C 232.715 64.103,232.500 63.892,232.500 63.771 C 232.500 63.650,232.181 63.409,231.792 63.236 C 231.402 63.063,230.935 62.786,230.753 62.621 C 230.387 62.287,230.459 62.305,227.940 61.932 C 226.286 61.687,225.961 61.687,224.190 61.926 C 221.613 62.273,221.543 62.291,221.166 62.667 C 220.987 62.846,220.577 63.103,220.254 63.238 C 219.931 63.373,219.667 63.560,219.667 63.654 C 219.667 63.748,219.442 63.941,219.167 64.083 C 218.892 64.226,218.667 64.451,218.667 64.584 C 218.667 64.717,218.486 64.944,218.264 65.089 C 218.043 65.234,217.743 65.649,217.599 66.010 C 217.454 66.371,217.263 66.667,217.174 66.667 C 216.989 66.667,216.500 68.202,216.500 68.785 C 216.500 69.001,216.393 69.218,216.262 69.269 C 215.335 69.624,215.210 82.242,216.121 83.474 C 216.314 83.735,216.524 84.298,216.588 84.726 C 216.653 85.154,216.865 85.707,217.061 85.954 C 217.257 86.202,217.529 86.645,217.667 86.940 C 218.032 87.722,219.280 88.995,219.960 89.279 C 220.285 89.415,220.671 89.670,220.817 89.847 C 220.984 90.048,221.394 90.207,221.917 90.272 C 222.375 90.329,223.012 90.535,223.333 90.728 C 224.205 91.253,227.638 91.253,228.500 90.728 C 228.821 90.532,229.517 90.320,230.046 90.257 C 230.795 90.167,231.065 90.056,231.263 89.753 C 231.403 89.540,231.704 89.318,231.931 89.261 C 232.159 89.204,232.429 88.972,232.532 88.745 C 232.636 88.519,232.824 88.333,232.951 88.333 C 233.078 88.333,233.310 88.109,233.466 87.834 C 233.886 87.096,234.000 87.215,234.000 88.398 C 234.000 90.040,234.230 90.235,236.250 90.308 C 238.261 90.381,239.269 90.242,239.410 89.873 C 239.538 89.541,239.531 52.941,239.403 52.609 C 239.124 51.881,234.744 51.678,234.259 52.370 M332.479 52.276 C 332.093 52.740,332.056 89.601,332.440 90.026 C 332.800 90.423,336.167 90.477,337.069 90.100 L 337.628 89.867 337.711 80.475 C 337.794 71.270,337.880 69.833,338.349 69.833 C 338.441 69.833,338.653 69.529,338.819 69.157 C 339.406 67.846,340.691 66.931,342.537 66.510 L 344.156 66.142 345.811 66.472 C 347.778 66.864,348.550 67.476,348.729 68.788 C 348.783 69.182,348.979 69.817,349.164 70.200 C 349.489 70.873,349.500 71.213,349.503 80.323 C 349.504 85.959,349.569 89.851,349.663 90.000 C 349.913 90.397,353.605 90.457,354.404 90.078 L 355.000 89.795 355.000 79.987 C 355.000 70.771,354.981 70.126,354.683 69.298 C 354.509 68.813,354.321 67.936,354.266 67.349 C 354.198 66.619,354.046 66.118,353.788 65.765 C 353.580 65.482,353.299 65.032,353.163 64.765 C 353.028 64.499,352.788 64.247,352.631 64.206 C 352.473 64.164,352.298 63.985,352.241 63.806 C 352.185 63.627,351.863 63.354,351.527 63.199 C 351.192 63.044,350.768 62.783,350.587 62.619 C 350.194 62.264,350.143 62.252,347.583 61.923 C 344.841 61.571,341.488 62.012,340.667 62.833 C 340.621 62.879,340.302 63.047,339.958 63.206 C 339.615 63.365,339.333 63.608,339.333 63.747 C 339.333 63.886,339.251 64.000,339.150 64.000 C 339.049 64.000,338.747 64.235,338.479 64.523 C 337.754 65.298,337.754 65.295,337.701 58.742 L 337.651 52.679 337.220 52.339 C 336.629 51.875,332.854 51.824,332.479 52.276 M180.896 53.188 C 181.054 53.980,181.020 55.758,180.837 56.239 C 180.679 56.657,180.637 56.667,179.097 56.667 C 177.139 56.667,177.000 56.538,177.000 54.724 C 177.000 52.682,177.016 52.667,179.058 52.667 L 180.792 52.667 180.896 53.188 M238.408 53.150 C 238.758 53.827,238.816 89.469,238.467 89.691 C 238.348 89.766,237.610 89.829,236.829 89.831 C 234.945 89.834,234.667 89.650,234.667 88.399 C 234.667 86.709,233.888 85.959,233.256 87.042 C 232.875 87.694,231.713 88.795,231.250 88.942 C 231.067 89.000,230.692 89.213,230.417 89.415 C 229.089 90.388,222.853 90.386,221.396 89.412 C 221.132 89.236,220.707 88.977,220.451 88.836 C 219.718 88.434,218.327 86.982,217.973 86.250 C 217.796 85.883,217.512 85.321,217.342 85.000 C 217.173 84.679,216.987 84.069,216.930 83.644 C 216.873 83.219,216.719 82.656,216.588 82.392 C 215.800 80.814,215.785 72.782,216.565 70.452 C 216.804 69.738,217.000 69.026,217.000 68.869 C 217.000 67.333,219.529 64.254,221.649 63.208 L 222.917 62.583 226.111 62.583 C 229.162 62.583,229.328 62.600,229.813 62.958 C 230.092 63.165,230.402 63.333,230.502 63.333 C 230.838 63.333,231.735 63.875,232.040 64.263 C 232.206 64.474,232.490 64.694,232.671 64.751 C 232.852 64.809,233.000 64.953,233.000 65.072 C 233.000 65.348,233.639 66.167,233.854 66.167 C 234.394 66.167,234.500 65.048,234.500 59.360 C 234.500 56.251,234.547 53.474,234.604 53.188 L 234.708 52.667 236.433 52.667 L 238.158 52.667 238.408 53.150 M336.596 53.191 C 336.834 53.652,336.863 54.460,336.831 59.816 C 336.788 66.914,336.775 66.500,337.042 66.500 C 337.156 66.500,337.925 65.863,338.750 65.085 C 339.598 64.285,340.504 63.585,340.833 63.475 C 341.154 63.368,341.629 63.124,341.889 62.932 C 342.623 62.391,349.101 62.395,349.695 62.938 C 349.909 63.133,350.356 63.379,350.688 63.486 C 351.258 63.668,352.667 64.863,352.667 65.164 C 352.667 65.240,352.921 65.778,353.232 66.360 C 353.740 67.310,353.815 67.631,353.982 69.545 C 354.246 72.583,354.233 89.367,353.967 89.633 C 353.678 89.922,350.435 89.906,350.193 89.615 C 350.069 89.466,349.998 86.277,349.965 79.407 C 349.922 70.453,349.888 69.365,349.639 68.917 C 349.486 68.642,349.216 68.117,349.038 67.750 C 348.059 65.730,344.138 64.746,341.750 65.920 C 341.292 66.146,340.829 66.331,340.722 66.332 C 339.660 66.340,337.828 69.002,337.259 71.364 L 336.833 73.130 336.833 81.309 C 336.833 90.866,337.112 89.871,334.458 89.797 L 332.750 89.750 332.708 71.532 C 332.679 59.164,332.721 53.210,332.838 52.990 C 332.992 52.703,333.199 52.667,334.668 52.667 L 336.325 52.667 336.596 53.191 M134.167 54.333 C 133.709 54.791,133.633 89.443,134.089 89.898 C 134.608 90.418,138.470 90.509,139.064 90.016 C 139.308 89.814,139.334 88.558,139.345 76.855 C 139.357 63.184,139.428 61.815,139.968 64.701 C 140.066 65.224,140.311 65.876,140.513 66.148 C 140.715 66.421,140.942 67.043,141.018 67.531 C 141.103 68.070,141.281 68.519,141.475 68.677 C 141.673 68.839,141.838 69.264,141.912 69.802 C 141.978 70.277,142.205 70.922,142.417 71.235 C 142.630 71.548,142.891 72.226,142.998 72.741 C 143.105 73.256,143.330 73.807,143.498 73.964 C 143.666 74.121,143.883 74.688,143.982 75.222 C 144.091 75.818,144.323 76.388,144.580 76.693 C 144.867 77.034,145.000 77.392,145.000 77.823 C 145.000 78.223,145.154 78.681,145.422 79.076 C 145.654 79.418,145.950 80.148,146.078 80.699 C 146.206 81.249,146.446 81.848,146.611 82.030 C 146.775 82.212,147.003 82.815,147.116 83.369 C 147.229 83.924,147.454 84.524,147.616 84.702 C 147.778 84.881,148.004 85.490,148.119 86.056 C 148.235 86.621,148.429 87.158,148.552 87.250 C 148.819 87.450,149.167 88.400,149.167 88.932 C 149.167 90.313,153.028 90.957,154.072 89.750 C 154.512 89.241,154.831 88.385,154.832 87.708 C 154.833 87.502,154.968 87.199,155.132 87.035 C 155.497 86.670,155.776 85.965,155.896 85.101 C 155.946 84.744,156.142 84.287,156.331 84.086 C 156.532 83.871,156.739 83.328,156.829 82.779 C 156.913 82.262,157.126 81.684,157.303 81.494 C 157.480 81.304,157.722 80.684,157.840 80.116 C 157.958 79.548,158.219 78.885,158.419 78.642 C 158.650 78.362,158.824 77.853,158.895 77.249 C 158.972 76.595,159.112 76.212,159.342 76.024 C 159.553 75.851,159.728 75.423,159.815 74.864 C 159.891 74.377,160.120 73.753,160.323 73.479 C 160.526 73.204,160.781 72.540,160.891 72.004 C 161.000 71.467,161.225 70.879,161.389 70.697 C 161.554 70.515,161.797 69.901,161.930 69.331 C 162.063 68.762,162.312 68.118,162.483 67.900 C 162.655 67.682,162.847 67.147,162.910 66.710 C 162.973 66.274,163.214 65.639,163.446 65.299 C 163.719 64.900,163.910 64.329,163.986 63.678 C 164.051 63.125,164.156 62.622,164.219 62.559 C 164.359 62.418,164.347 61.329,164.385 76.888 C 164.422 92.137,164.076 90.382,167.029 90.302 C 168.827 90.254,169.007 90.219,169.408 89.842 L 169.842 89.434 169.796 72.147 L 169.750 54.860 169.343 54.426 L 168.935 53.993 165.849 54.038 L 162.762 54.083 162.510 54.583 C 162.371 54.858,162.093 55.346,161.891 55.667 C 161.689 55.987,161.471 56.625,161.406 57.083 C 161.340 57.542,161.126 58.109,160.930 58.344 C 160.732 58.582,160.475 59.267,160.352 59.886 C 160.230 60.499,160.060 61.000,159.973 61.000 C 159.753 61.000,159.333 62.063,159.333 62.623 C 159.333 62.879,159.143 63.369,158.911 63.710 C 158.679 64.052,158.405 64.763,158.302 65.291 C 158.200 65.818,157.984 66.378,157.823 66.534 C 157.572 66.777,157.167 68.119,157.167 68.706 C 157.167 68.810,157.006 69.066,156.809 69.276 C 156.602 69.496,156.395 70.018,156.316 70.518 C 156.241 70.993,155.990 71.654,155.758 71.989 C 155.520 72.332,155.290 72.957,155.230 73.423 C 155.164 73.934,154.979 74.409,154.745 74.667 C 154.507 74.929,154.325 75.406,154.252 75.955 C 154.188 76.435,153.983 77.022,153.795 77.261 C 153.607 77.500,153.349 78.192,153.222 78.799 C 153.095 79.406,152.921 79.946,152.835 79.999 C 152.565 80.166,152.167 81.300,152.167 81.901 C 152.167 82.529,151.930 82.826,151.767 82.402 C 151.712 82.258,151.667 81.894,151.667 81.593 C 151.667 81.292,151.492 80.789,151.278 80.475 C 151.065 80.160,150.796 79.418,150.681 78.826 C 150.566 78.234,150.328 77.595,150.152 77.406 C 149.977 77.217,149.752 76.620,149.652 76.079 C 149.543 75.493,149.308 74.903,149.068 74.618 C 148.799 74.298,148.667 73.934,148.667 73.510 C 148.667 73.110,148.512 72.652,148.244 72.258 C 148.012 71.915,147.717 71.183,147.588 70.631 C 147.459 70.078,147.207 69.467,147.027 69.271 C 146.840 69.068,146.652 68.541,146.584 68.035 C 146.513 67.500,146.319 66.975,146.090 66.701 C 145.883 66.453,145.662 65.899,145.598 65.470 C 145.535 65.041,145.345 64.515,145.176 64.300 C 144.892 63.939,144.650 63.242,144.422 62.130 C 144.371 61.880,144.193 61.543,144.026 61.380 C 143.860 61.217,143.628 60.633,143.511 60.083 C 143.394 59.533,143.157 58.929,142.983 58.739 C 142.809 58.550,142.585 57.950,142.486 57.406 C 142.387 56.862,142.167 56.267,141.998 56.083 C 141.830 55.900,141.639 55.525,141.576 55.250 C 141.281 53.974,141.360 54.000,137.746 54.000 C 134.722 54.000,134.477 54.023,134.167 54.333 M243.426 54.370 C 243.234 54.644,243.167 55.165,243.167 56.370 C 243.167 58.856,242.632 58.667,249.667 58.667 L 255.500 58.667 255.500 74.224 C 255.500 89.084,255.514 89.794,255.805 90.058 C 256.266 90.475,260.307 90.462,260.817 90.042 L 261.170 89.750 261.210 74.250 L 261.250 58.750 267.000 58.667 C 273.986 58.565,273.419 58.769,273.410 56.362 C 273.401 53.696,275.342 54.000,258.322 54.000 L 243.686 54.000 243.426 54.370 M140.610 54.746 C 140.807 54.884,141.012 55.269,141.076 55.621 C 141.140 55.967,141.363 56.550,141.573 56.917 C 141.783 57.283,142.048 57.980,142.162 58.465 C 142.276 58.949,142.458 59.437,142.567 59.548 C 142.812 59.799,143.110 60.565,143.260 61.333 C 143.323 61.654,143.509 62.107,143.673 62.339 C 143.837 62.571,144.024 63.059,144.088 63.422 C 144.152 63.786,144.379 64.389,144.592 64.763 C 144.806 65.138,145.074 65.813,145.187 66.263 C 145.301 66.714,145.532 67.317,145.700 67.603 C 145.869 67.888,146.121 68.561,146.261 69.098 C 146.401 69.635,146.621 70.190,146.750 70.333 C 146.879 70.476,147.095 71.016,147.230 71.533 C 147.365 72.050,147.589 72.648,147.729 72.862 C 147.869 73.075,148.098 73.693,148.239 74.234 C 148.380 74.775,148.617 75.403,148.765 75.630 C 148.914 75.857,149.176 76.534,149.348 77.135 C 149.520 77.735,149.722 78.269,149.798 78.321 C 150.011 78.469,150.299 79.339,150.409 80.172 C 150.464 80.588,150.645 81.150,150.810 81.422 C 150.975 81.694,151.163 82.142,151.228 82.417 C 151.648 84.209,152.290 84.278,152.590 82.562 C 152.653 82.207,152.849 81.662,153.027 81.350 C 153.206 81.039,153.421 80.416,153.506 79.966 C 153.592 79.517,153.888 78.685,154.164 78.119 C 154.440 77.552,154.667 76.937,154.667 76.751 C 154.667 76.566,154.848 76.074,155.069 75.658 C 155.291 75.242,155.587 74.462,155.727 73.925 C 155.867 73.387,156.047 72.903,156.126 72.849 C 156.311 72.721,156.612 71.902,156.735 71.194 C 156.787 70.889,156.972 70.439,157.146 70.194 C 157.319 69.950,157.585 69.266,157.736 68.674 C 157.887 68.082,158.109 67.482,158.230 67.341 C 158.350 67.199,158.582 66.596,158.744 66.000 C 158.906 65.404,159.173 64.728,159.337 64.497 C 159.501 64.266,159.688 63.721,159.753 63.286 C 159.818 62.852,160.004 62.328,160.166 62.122 C 160.327 61.917,160.584 61.265,160.735 60.673 C 160.887 60.082,161.117 59.480,161.248 59.336 C 161.378 59.192,161.595 58.653,161.729 58.139 C 161.862 57.625,162.106 56.952,162.271 56.644 C 162.435 56.336,162.685 55.746,162.826 55.333 L 163.083 54.583 165.794 54.538 L 168.505 54.492 168.669 54.923 C 168.926 55.598,168.891 89.376,168.633 89.633 C 168.506 89.761,167.856 89.833,166.833 89.833 C 165.811 89.833,165.161 89.761,165.033 89.633 C 164.881 89.481,164.833 86.162,164.833 75.711 C 164.833 61.929,164.791 60.833,164.261 60.833 C 164.092 60.833,163.721 61.917,163.610 62.738 C 163.548 63.189,163.354 63.803,163.179 64.101 C 163.003 64.399,162.739 65.111,162.592 65.683 C 162.446 66.255,162.182 66.956,162.005 67.242 C 161.829 67.527,161.603 68.126,161.503 68.572 C 161.403 69.018,161.184 69.578,161.017 69.816 C 160.850 70.055,160.659 70.550,160.594 70.917 C 160.529 71.283,160.303 71.883,160.093 72.250 C 159.884 72.617,159.617 73.320,159.501 73.813 C 159.385 74.306,159.113 75.018,158.897 75.396 C 158.681 75.774,158.503 76.239,158.502 76.430 C 158.501 76.621,158.313 77.146,158.083 77.597 C 157.854 78.048,157.555 78.853,157.417 79.386 C 157.280 79.920,157.063 80.461,156.935 80.588 C 156.807 80.716,156.611 81.217,156.500 81.702 C 156.388 82.187,156.146 82.846,155.962 83.167 C 155.778 83.487,155.521 84.158,155.391 84.657 C 155.261 85.156,155.017 85.793,154.849 86.074 C 154.682 86.354,154.459 86.936,154.355 87.368 C 154.251 87.799,153.955 88.512,153.697 88.951 L 153.228 89.750 151.985 89.798 C 150.451 89.857,149.969 89.479,149.559 87.897 C 149.419 87.358,149.168 86.692,149.001 86.417 C 148.834 86.142,148.612 85.579,148.507 85.167 C 148.403 84.754,148.143 84.079,147.929 83.667 C 147.715 83.254,147.487 82.619,147.422 82.256 C 147.358 81.892,147.164 81.397,146.992 81.155 C 146.820 80.914,146.597 80.351,146.497 79.905 C 146.397 79.459,146.177 78.867,146.007 78.589 C 145.837 78.311,145.582 77.687,145.440 77.202 C 145.297 76.717,145.034 76.042,144.855 75.702 C 144.677 75.362,144.437 74.708,144.323 74.250 C 144.209 73.792,144.027 73.304,143.919 73.167 C 143.677 72.860,143.389 72.095,143.249 71.383 C 143.191 71.089,143.009 70.677,142.844 70.466 C 142.679 70.256,142.462 69.698,142.361 69.228 C 142.261 68.758,142.030 68.120,141.848 67.811 C 141.666 67.503,141.406 66.825,141.271 66.305 C 141.136 65.785,140.911 65.185,140.772 64.972 C 140.632 64.758,140.439 64.208,140.341 63.750 C 140.244 63.292,140.126 62.747,140.078 62.540 C 140.031 62.332,139.778 61.971,139.515 61.737 C 139.252 61.503,138.993 61.091,138.939 60.822 C 138.834 60.293,138.558 60.165,138.471 60.605 C 138.441 60.754,138.464 62.273,138.522 63.980 C 138.579 65.687,138.636 72.115,138.647 78.265 L 138.667 89.446 138.242 89.640 C 137.669 89.901,135.309 89.891,134.945 89.625 C 134.536 89.325,134.589 54.923,135.000 54.663 C 135.433 54.389,140.201 54.460,140.610 54.746 M272.511 54.673 C 272.794 54.824,272.833 55.033,272.833 56.401 L 272.833 57.956 272.208 58.060 C 271.865 58.117,269.294 58.164,266.495 58.165 C 262.162 58.166,261.353 58.205,261.037 58.426 L 260.667 58.686 260.667 74.087 C 260.667 89.143,260.659 89.492,260.344 89.661 C 260.001 89.845,256.707 89.902,256.264 89.732 C 256.026 89.641,256.000 88.114,256.000 74.161 C 256.000 60.319,255.972 58.663,255.738 58.429 C 255.511 58.202,254.744 58.164,250.030 58.150 C 243.222 58.129,243.746 58.270,243.764 56.474 C 243.772 55.691,243.826 54.927,243.884 54.775 C 244.012 54.443,271.894 54.342,272.511 54.673 M199.083 61.990 C 197.309 62.265,196.500 62.525,196.500 62.821 C 196.500 62.900,196.310 63.012,196.077 63.070 C 195.844 63.129,195.420 63.399,195.135 63.671 C 194.850 63.944,194.552 64.167,194.472 64.167 C 194.392 64.167,194.239 64.358,194.133 64.592 C 193.718 65.501,192.934 65.097,192.820 63.917 C 192.653 62.176,192.640 62.167,190.353 62.167 C 188.658 62.167,188.347 62.209,188.109 62.471 C 187.756 62.862,187.679 88.979,188.029 89.746 C 188.286 90.312,188.641 90.381,190.932 90.308 C 193.769 90.218,193.498 91.178,193.510 81.190 C 193.522 71.999,193.609 70.353,194.115 69.787 C 194.297 69.583,194.572 69.138,194.728 68.797 C 194.883 68.456,195.114 68.119,195.240 68.047 C 195.367 67.975,195.731 67.679,196.050 67.388 C 196.612 66.875,199.250 66.091,200.250 66.140 C 202.082 66.229,204.326 67.408,204.337 68.286 C 204.339 68.450,204.526 69.108,204.753 69.750 L 205.165 70.917 205.166 80.136 C 205.167 91.296,204.925 90.327,207.714 90.331 C 209.766 90.334,210.595 90.094,210.756 89.451 C 211.018 88.409,210.757 69.931,210.472 69.333 C 210.319 69.012,210.146 68.300,210.088 67.750 C 209.954 66.492,209.715 65.721,209.425 65.610 C 209.302 65.562,209.116 65.267,209.012 64.953 C 208.903 64.624,208.650 64.303,208.412 64.195 C 208.185 64.092,208.000 63.892,208.000 63.751 C 208.000 63.610,207.719 63.365,207.375 63.206 C 207.031 63.047,206.713 62.874,206.667 62.821 C 206.290 62.388,202.112 61.536,201.083 61.683 C 200.992 61.696,200.092 61.834,199.083 61.990 M286.215 61.984 C 284.151 62.211,283.610 62.325,283.299 62.603 C 283.089 62.790,282.598 63.034,282.208 63.145 C 281.804 63.260,281.387 63.517,281.241 63.741 C 281.099 63.958,280.812 64.178,280.603 64.230 C 280.395 64.282,280.138 64.515,280.032 64.746 C 279.927 64.977,279.728 65.167,279.591 65.167 C 279.454 65.167,279.216 65.410,279.063 65.708 C 278.909 66.006,278.647 66.346,278.480 66.464 C 278.313 66.582,278.087 66.976,277.979 67.339 C 277.870 67.703,277.720 68.000,277.646 68.000 C 277.414 68.000,277.152 68.648,276.995 69.614 C 276.912 70.127,276.725 70.677,276.580 70.837 C 275.845 71.649,275.744 80.176,276.455 81.380 C 276.660 81.726,276.899 82.454,276.987 82.998 C 277.078 83.566,277.328 84.255,277.573 84.616 C 277.808 84.961,278.000 85.338,278.000 85.452 C 278.000 85.567,278.206 85.894,278.458 86.180 C 279.927 87.843,280.414 88.333,280.594 88.333 C 280.704 88.333,280.912 88.512,281.055 88.730 C 281.197 88.947,281.516 89.176,281.763 89.238 C 282.010 89.300,282.459 89.539,282.761 89.770 C 283.142 90.060,283.606 90.218,284.280 90.284 C 284.813 90.337,285.550 90.535,285.917 90.724 C 286.931 91.247,291.141 91.251,292.000 90.729 C 292.357 90.512,292.990 90.340,293.631 90.286 C 294.403 90.221,294.824 90.086,295.233 89.774 C 295.538 89.541,295.990 89.300,296.237 89.238 C 296.484 89.176,296.801 88.950,296.941 88.736 C 297.082 88.522,297.344 88.299,297.525 88.242 C 297.706 88.185,297.936 87.957,298.037 87.736 C 298.138 87.514,298.319 87.333,298.439 87.333 C 298.560 87.333,298.781 87.090,298.930 86.792 C 299.080 86.494,299.349 86.134,299.528 85.992 C 300.323 85.360,300.192 83.500,299.352 83.500 C 299.183 83.500,298.846 83.343,298.602 83.152 C 297.686 82.431,295.883 82.422,295.460 83.137 C 294.999 83.916,293.206 85.667,292.870 85.667 C 292.692 85.667,292.255 85.869,291.898 86.117 C 291.090 86.678,286.825 86.835,286.444 86.318 C 286.199 85.986,285.614 85.670,285.219 85.657 C 284.944 85.648,284.668 85.383,283.190 83.707 C 282.878 83.353,282.675 82.899,282.607 82.401 C 282.550 81.982,282.341 81.411,282.143 81.133 C 281.850 80.722,281.780 80.377,281.767 79.272 L 281.750 77.917 291.250 77.830 C 296.475 77.782,300.765 77.726,300.784 77.705 C 301.397 77.012,301.202 71.962,300.513 70.667 C 300.342 70.346,300.148 69.746,300.081 69.333 C 299.948 68.508,299.575 67.667,299.342 67.667 C 299.260 67.667,299.143 67.438,299.081 67.158 C 298.964 66.623,298.617 66.180,297.250 64.823 C 295.899 63.482,295.781 63.391,295.083 63.149 C 294.717 63.021,294.182 62.761,293.896 62.572 C 293.506 62.313,292.881 62.178,291.396 62.029 C 290.307 61.921,289.267 61.804,289.083 61.769 C 288.900 61.734,287.609 61.831,286.215 61.984 M315.750 61.837 C 315.383 61.910,314.462 62.023,313.702 62.088 C 312.690 62.175,312.174 62.306,311.774 62.578 C 311.473 62.782,311.026 62.999,310.780 63.061 C 310.350 63.169,309.984 63.444,308.703 64.625 C 308.380 64.923,308.053 65.167,307.978 65.167 C 307.902 65.167,307.794 65.350,307.737 65.575 C 307.681 65.799,307.467 66.092,307.262 66.227 C 307.057 66.361,306.758 66.815,306.598 67.235 C 306.437 67.656,306.240 68.000,306.159 68.000 C 305.976 68.000,305.500 69.572,305.500 70.177 C 305.500 70.424,305.396 70.712,305.269 70.818 C 304.387 71.549,304.396 80.796,305.279 81.846 C 305.400 81.991,305.500 82.231,305.500 82.380 C 305.500 83.115,305.908 84.397,306.266 84.783 C 306.486 85.021,306.667 85.354,306.667 85.524 C 306.667 85.694,306.835 85.999,307.042 86.202 C 307.248 86.405,307.567 86.813,307.750 87.109 C 308.127 87.718,310.067 89.333,310.421 89.333 C 310.549 89.333,310.826 89.520,311.038 89.749 C 311.343 90.077,311.648 90.186,312.503 90.270 C 313.135 90.332,313.822 90.520,314.159 90.723 C 315.024 91.244,318.640 91.243,319.500 90.722 C 319.821 90.527,320.524 90.316,321.063 90.253 C 321.790 90.167,322.140 90.033,322.416 89.735 C 322.621 89.514,322.907 89.333,323.051 89.333 C 323.692 89.333,326.667 86.166,326.667 85.484 C 326.667 85.323,326.863 84.959,327.103 84.674 C 327.577 84.111,327.843 82.317,327.523 81.847 C 327.323 81.553,326.029 81.361,324.137 81.346 C 322.479 81.332,322.000 81.654,322.000 82.784 C 322.000 83.536,320.499 85.411,319.754 85.590 C 319.482 85.656,318.977 85.887,318.633 86.105 C 317.973 86.522,315.476 86.698,315.257 86.344 C 315.117 86.118,314.165 85.667,313.828 85.667 C 313.540 85.667,312.632 84.822,311.816 83.796 C 311.573 83.489,311.343 82.941,311.291 82.545 C 311.240 82.156,311.023 81.481,310.808 81.045 C 310.215 79.840,310.201 72.139,310.790 71.077 C 310.996 70.707,311.227 70.067,311.304 69.654 C 311.438 68.936,311.619 68.674,312.865 67.399 C 314.629 65.594,321.167 66.414,321.167 68.441 C 321.167 68.555,321.310 68.748,321.486 68.871 C 321.661 68.994,321.856 69.369,321.919 69.705 C 322.142 70.890,322.218 70.923,324.613 70.865 C 327.260 70.800,327.500 70.686,327.500 69.496 C 327.500 68.897,327.410 68.577,327.176 68.343 C 326.998 68.164,326.798 67.733,326.733 67.385 C 326.666 67.026,326.419 66.569,326.164 66.331 C 325.916 66.099,325.662 65.747,325.598 65.547 C 325.535 65.347,325.341 65.139,325.167 65.083 C 324.993 65.028,324.802 64.830,324.743 64.644 C 324.684 64.458,324.417 64.229,324.151 64.136 C 323.885 64.043,323.667 63.876,323.667 63.765 C 323.667 63.547,322.649 63.000,322.244 63.000 C 322.110 63.000,322.000 62.943,322.000 62.873 C 322.000 62.533,321.047 62.248,319.000 61.978 C 316.502 61.648,316.670 61.655,315.750 61.837 M176.551 62.569 L 176.083 62.971 176.036 76.027 C 175.983 90.515,175.943 89.757,176.783 90.108 C 177.615 90.456,181.102 90.373,181.337 90.000 C 181.639 89.522,181.545 62.972,181.241 62.537 C 180.829 61.950,177.243 61.974,176.551 62.569 M205.445 62.930 C 205.704 63.120,206.164 63.361,206.465 63.465 C 207.164 63.706,208.363 64.909,208.660 65.667 C 208.786 65.987,208.978 66.362,209.087 66.500 C 209.707 67.279,209.730 67.675,209.795 78.677 C 209.869 91.189,210.125 89.866,207.642 89.798 L 205.917 89.750 205.823 79.833 C 205.722 69.162,205.757 69.564,204.774 67.753 C 203.639 65.665,199.803 64.684,197.499 65.893 C 197.087 66.109,196.563 66.334,196.333 66.393 C 195.811 66.526,194.593 67.671,194.235 68.363 C 194.086 68.650,193.833 69.026,193.673 69.199 C 193.512 69.371,193.295 69.978,193.190 70.548 C 193.085 71.117,192.889 72.071,192.753 72.667 C 192.555 73.538,192.506 75.287,192.503 81.605 C 192.499 90.759,192.739 89.865,190.309 89.798 L 188.583 89.750 188.500 76.833 C 188.454 69.729,188.455 63.654,188.503 63.333 L 188.588 62.750 190.266 62.703 L 191.944 62.656 192.139 63.305 C 192.246 63.663,192.333 64.436,192.333 65.024 C 192.333 65.720,192.424 66.221,192.592 66.462 L 192.851 66.832 193.675 66.007 C 194.129 65.554,194.500 65.104,194.500 65.008 C 194.500 64.912,194.563 64.833,194.641 64.833 C 194.719 64.833,195.057 64.567,195.392 64.241 C 195.728 63.915,196.245 63.566,196.543 63.465 C 196.840 63.365,197.272 63.151,197.502 62.991 C 198.402 62.366,204.611 62.318,205.445 62.930 M292.333 62.744 C 292.654 62.870,293.415 63.157,294.025 63.382 C 294.635 63.606,295.305 63.949,295.515 64.145 C 295.725 64.340,295.955 64.500,296.027 64.500 C 296.406 64.500,298.667 67.242,298.667 67.701 C 298.667 67.840,298.850 68.224,299.075 68.555 C 299.299 68.886,299.530 69.440,299.587 69.787 C 299.832 71.277,300.066 72.265,300.222 72.467 C 300.421 72.726,300.589 75.957,300.435 76.571 L 300.327 77.000 291.092 77.000 L 281.858 77.000 281.494 77.458 C 280.440 78.788,281.669 83.194,283.634 85.134 C 287.008 88.463,293.242 87.806,295.734 83.859 C 296.171 83.166,296.810 83.038,297.428 83.519 C 297.526 83.595,297.990 83.739,298.459 83.840 C 299.735 84.114,299.877 84.647,298.924 85.599 C 298.783 85.741,298.667 85.950,298.667 86.063 C 298.667 86.264,297.460 87.543,296.570 88.285 C 296.327 88.488,295.856 88.742,295.522 88.850 C 295.189 88.958,294.710 89.192,294.457 89.369 C 293.019 90.378,284.891 90.382,283.517 89.375 C 283.278 89.200,282.840 88.974,282.543 88.871 C 281.774 88.606,279.333 86.591,279.333 86.221 C 279.333 86.132,279.146 85.882,278.917 85.667 C 278.688 85.451,278.500 85.183,278.500 85.071 C 278.500 84.959,278.276 84.442,278.003 83.923 C 277.693 83.333,277.408 82.409,277.243 81.459 C 277.098 80.623,276.918 79.822,276.843 79.678 C 276.136 78.323,276.961 69.848,277.891 68.918 C 278.028 68.782,278.231 68.394,278.342 68.058 C 278.524 67.507,279.389 66.180,279.847 65.750 C 279.944 65.658,280.198 65.412,280.411 65.203 C 280.916 64.707,282.786 63.500,283.050 63.500 C 283.163 63.500,283.554 63.337,283.919 63.138 C 285.119 62.485,290.976 62.210,292.333 62.744 M320.795 62.945 C 321.065 63.144,321.583 63.388,321.948 63.486 C 322.313 63.584,322.816 63.834,323.066 64.041 C 324.197 64.977,325.333 66.090,325.333 66.261 C 325.333 66.364,325.479 66.581,325.658 66.742 C 326.031 67.080,326.667 68.913,326.667 69.652 C 326.667 70.272,326.262 70.374,324.084 70.301 L 322.585 70.250 322.417 69.480 C 322.126 68.142,321.018 66.856,319.525 66.125 C 318.190 65.473,315.159 65.316,314.333 65.856 C 314.104 66.007,313.643 66.216,313.309 66.322 C 312.530 66.569,311.119 68.051,310.833 68.922 C 310.714 69.286,310.520 69.733,310.403 69.917 C 309.420 71.458,309.553 80.411,310.592 82.615 C 310.817 83.090,311.001 83.578,311.003 83.698 C 311.005 83.818,311.267 84.216,311.587 84.582 C 311.906 84.947,312.167 85.300,312.167 85.366 C 312.167 85.432,312.710 85.807,313.375 86.201 L 314.583 86.917 316.750 86.916 L 318.917 86.915 320.000 86.277 C 320.596 85.926,321.143 85.534,321.215 85.406 C 321.287 85.278,321.562 84.937,321.825 84.649 C 322.089 84.360,322.352 83.853,322.411 83.520 C 322.593 82.494,322.675 82.338,323.170 82.082 C 323.667 81.824,325.615 81.769,326.583 81.984 C 327.159 82.112,327.246 83.010,326.750 83.716 C 326.608 83.918,326.412 84.380,326.314 84.743 C 326.009 85.870,323.733 88.400,322.627 88.841 C 322.328 88.961,321.868 89.207,321.604 89.389 C 319.468 90.862,312.151 90.198,309.945 88.332 C 308.882 87.433,307.167 85.493,307.167 85.189 C 307.167 85.089,306.933 84.576,306.647 84.048 C 306.321 83.445,306.045 82.591,305.904 81.752 C 305.781 81.018,305.558 79.892,305.409 79.250 C 305.063 77.765,305.149 73.629,305.547 72.562 C 305.689 72.183,305.856 71.433,305.920 70.895 C 306.037 69.897,307.091 67.394,307.665 66.750 C 307.828 66.567,308.009 66.259,308.067 66.067 C 308.126 65.875,308.359 65.632,308.587 65.529 C 308.814 65.425,309.000 65.271,309.000 65.186 C 309.000 64.928,310.695 63.793,311.583 63.454 C 312.042 63.280,312.511 63.059,312.626 62.964 C 313.358 62.358,319.982 62.343,320.795 62.945 M180.837 63.094 C 181.037 63.618,181.058 89.318,180.859 89.631 C 180.759 89.789,180.247 89.833,178.903 89.798 L 177.083 89.750 177.083 76.369 C 177.083 64.656,177.114 62.968,177.333 62.830 C 177.961 62.433,180.664 62.637,180.837 63.094 M225.319 65.489 C 224.990 65.553,224.502 65.759,224.235 65.947 C 223.968 66.136,223.581 66.342,223.375 66.406 C 223.169 66.470,223.000 66.593,223.000 66.679 C 223.000 66.765,222.816 66.995,222.592 67.190 C 219.621 69.774,219.665 82.393,222.656 85.406 C 224.334 87.097,228.584 87.795,229.987 86.611 C 230.132 86.489,230.522 86.265,230.853 86.114 C 231.366 85.880,231.964 85.308,232.873 84.182 C 233.048 83.965,233.489 82.839,234.118 81.000 C 234.610 79.560,234.498 72.007,233.966 70.750 C 233.733 70.200,233.457 69.482,233.352 69.155 C 233.013 68.101,231.726 66.669,230.751 66.261 C 230.390 66.110,230.049 65.913,229.994 65.823 C 229.753 65.434,226.711 65.216,225.319 65.489 M286.741 65.475 C 286.370 65.542,285.845 65.753,285.575 65.943 C 285.304 66.134,284.932 66.337,284.746 66.394 C 284.420 66.495,283.534 67.310,282.819 68.167 C 281.689 69.521,280.863 72.659,281.425 73.462 L 281.686 73.833 288.567 73.833 C 296.767 73.833,296.113 74.023,295.835 71.729 C 295.723 70.810,295.541 70.092,295.354 69.833 C 295.188 69.604,294.964 69.154,294.856 68.833 C 294.044 66.422,290.229 64.843,286.741 65.475 M228.902 66.212 C 229.033 66.342,229.502 66.547,229.945 66.666 C 230.388 66.785,230.909 67.059,231.103 67.275 C 231.297 67.490,231.528 67.667,231.616 67.667 C 231.705 67.667,231.883 67.873,232.014 68.125 C 232.144 68.377,232.384 68.696,232.547 68.833 C 232.736 68.992,232.910 69.508,233.025 70.250 C 233.124 70.892,233.365 71.754,233.561 72.167 C 234.096 73.295,234.099 78.862,233.565 80.000 C 233.371 80.412,233.131 81.313,233.031 82.000 C 232.894 82.946,232.767 83.306,232.508 83.479 C 232.320 83.604,232.167 83.804,232.167 83.922 C 232.167 84.261,230.713 85.667,230.363 85.667 C 230.189 85.667,229.770 85.854,229.433 86.083 C 228.705 86.577,225.575 86.718,225.133 86.276 C 224.792 85.935,224.227 85.667,223.849 85.667 C 223.639 85.667,223.409 85.474,223.250 85.167 C 223.108 84.892,222.886 84.667,222.757 84.667 C 222.518 84.667,222.441 84.497,222.251 83.549 C 222.192 83.256,221.993 82.824,221.808 82.589 C 220.988 81.546,220.919 71.725,221.722 70.190 C 221.950 69.754,222.221 69.084,222.324 68.701 C 222.428 68.315,222.660 67.926,222.847 67.826 C 223.032 67.727,223.245 67.482,223.322 67.282 C 223.416 67.033,223.719 66.843,224.272 66.685 C 224.718 66.557,225.196 66.359,225.333 66.244 C 225.890 65.778,228.446 65.755,228.902 66.212 M290.309 66.126 C 290.368 66.222,290.857 66.428,291.395 66.584 C 292.603 66.935,294.258 68.520,294.441 69.500 C 294.500 69.821,294.726 70.344,294.941 70.664 C 295.250 71.120,295.333 71.467,295.333 72.291 L 295.333 73.337 288.542 73.294 L 281.750 73.250 281.759 72.489 C 281.764 71.992,281.889 71.556,282.119 71.233 C 282.313 70.961,282.522 70.441,282.584 70.078 C 282.762 69.026,282.833 68.856,283.134 68.760 C 283.289 68.711,283.517 68.445,283.639 68.169 C 283.761 67.893,283.966 67.667,284.093 67.667 C 284.221 67.667,284.443 67.488,284.586 67.270 C 284.729 67.051,285.064 66.829,285.331 66.776 C 285.597 66.722,286.101 66.549,286.449 66.390 C 286.798 66.231,287.233 66.044,287.417 65.974 C 287.885 65.795,290.178 65.916,290.309 66.126 M48.323 109.142 C 47.839 109.534,47.640 111.299,48.043 111.633 C 48.511 112.022,114.419 111.832,115.208 111.439 C 116.143 110.975,115.629 110.095,113.942 109.269 L 113.050 108.833 80.877 108.833 C 49.814 108.833,48.690 108.844,48.323 109.142 M113.706 110.488 L 114.250 110.975 113.781 111.154 C 113.452 111.280,103.611 111.333,80.901 111.333 C 45.502 111.333,48.153 111.408,48.402 110.416 L 48.506 110.000 80.834 110.000 L 113.161 110.000 113.706 110.488 " stroke="none" fill="#617079" fill-rule="evenodd"></path><path id="path4" d="M82.417 51.844 C 79.826 52.026,77.810 52.666,76.870 53.606 C 76.750 53.726,76.336 53.905,75.951 54.003 C 74.740 54.312,74.336 54.528,73.785 55.157 C 73.491 55.493,72.900 55.970,72.473 56.216 C 72.045 56.462,71.533 56.927,71.334 57.249 C 71.135 57.570,70.907 57.833,70.827 57.833 C 70.551 57.833,69.828 58.688,69.417 59.500 C 69.190 59.948,68.909 60.375,68.794 60.449 C 68.269 60.786,67.782 61.550,67.407 62.629 C 67.183 63.273,66.743 64.181,66.429 64.648 C 65.804 65.577,65.410 66.749,65.246 68.167 C 65.188 68.671,64.991 69.833,64.808 70.750 C 64.329 73.143,64.336 77.069,64.824 79.669 C 65.463 83.077,65.648 83.676,66.416 84.833 C 66.817 85.435,67.304 86.355,67.500 86.877 C 67.731 87.496,68.061 87.997,68.446 88.314 C 68.772 88.583,69.239 89.106,69.486 89.478 C 69.732 89.850,70.230 90.372,70.592 90.637 C 70.954 90.902,71.537 91.392,71.887 91.726 C 72.237 92.060,72.603 92.333,72.700 92.333 C 72.798 92.333,73.524 92.703,74.314 93.155 C 77.800 95.149,87.071 95.454,89.667 93.660 C 89.896 93.502,90.794 93.022,91.663 92.593 C 92.532 92.165,93.282 91.762,93.330 91.698 C 93.377 91.634,93.684 91.383,94.010 91.140 C 94.809 90.545,97.010 88.370,97.437 87.753 L 97.781 87.256 98.754 87.586 C 99.681 87.901,99.754 87.968,100.300 89.000 C 101.974 92.164,105.057 93.573,108.182 92.602 C 111.107 91.693,111.251 90.808,109.038 87.337 C 108.718 86.835,108.240 85.775,107.976 84.981 C 107.712 84.187,107.166 82.872,106.762 82.060 C 106.359 81.248,105.878 80.021,105.693 79.333 C 105.508 78.646,105.240 77.671,105.097 77.167 C 104.668 75.653,105.061 73.925,106.280 71.962 C 106.493 71.620,106.667 71.277,106.667 71.199 C 106.667 71.122,106.848 70.888,107.069 70.680 C 107.291 70.472,107.598 69.915,107.751 69.442 C 107.905 68.970,108.431 67.908,108.921 67.083 C 109.410 66.258,110.019 65.096,110.273 64.500 C 110.527 63.904,111.023 62.990,111.376 62.468 C 111.728 61.946,112.213 60.933,112.453 60.218 C 112.693 59.502,113.095 58.654,113.348 58.333 C 115.489 55.613,114.763 52.540,112.017 52.701 C 110.794 52.773,110.379 52.913,109.514 53.546 C 109.292 53.710,108.786 53.924,108.391 54.024 C 107.283 54.303,105.002 56.404,104.321 57.774 C 104.032 58.357,103.742 58.833,103.677 58.833 C 103.535 58.833,102.833 60.335,102.274 61.833 C 101.970 62.650,101.783 62.930,101.514 62.970 C 101.006 63.047,99.667 62.500,99.667 62.216 C 99.667 61.699,98.608 59.473,98.118 58.960 C 97.833 58.661,97.403 58.042,97.162 57.583 C 96.922 57.125,96.427 56.525,96.062 56.250 C 95.697 55.975,95.207 55.483,94.973 55.156 C 94.716 54.798,94.181 54.388,93.629 54.127 C 93.124 53.888,92.517 53.512,92.279 53.292 C 91.477 52.548,89.766 52.018,87.583 51.838 C 85.390 51.656,85.099 51.656,82.417 51.844 M88.083 53.350 C 88.542 53.439,89.275 53.699,89.713 53.927 C 90.151 54.155,90.939 54.500,91.463 54.694 C 93.215 55.342,95.349 57.306,96.573 59.395 C 96.995 60.117,97.486 60.892,97.664 61.117 C 97.841 61.343,98.222 62.138,98.510 62.884 C 99.497 65.446,99.721 65.659,101.429 65.665 C 102.238 65.668,102.866 64.776,103.593 62.595 C 103.744 62.143,104.034 61.506,104.239 61.179 C 104.443 60.851,104.893 59.983,105.238 59.250 C 106.684 56.174,109.855 54.075,111.982 54.784 C 113.260 55.210,113.503 55.638,112.841 56.300 C 112.531 56.610,112.086 57.443,111.695 58.447 C 111.343 59.350,110.793 60.462,110.471 60.919 C 110.150 61.376,109.712 62.227,109.499 62.811 C 109.286 63.394,108.791 64.307,108.399 64.839 C 108.007 65.372,107.607 66.101,107.511 66.460 C 107.414 66.820,106.909 67.744,106.388 68.515 C 102.999 73.533,102.511 75.668,103.954 79.167 C 104.276 79.946,104.757 81.258,105.023 82.083 C 105.289 82.908,105.832 84.146,106.230 84.833 C 106.628 85.521,107.128 86.608,107.341 87.250 C 107.730 88.420,108.279 89.443,108.841 90.047 C 109.919 91.204,106.507 92.136,104.667 91.187 C 103.348 90.507,101.731 88.758,101.017 87.240 C 100.090 85.270,99.974 85.167,98.680 85.167 C 97.604 85.167,96.669 85.665,96.666 86.240 C 96.661 87.176,91.349 91.380,89.500 91.910 C 89.271 91.975,88.408 92.277,87.583 92.580 C 82.803 94.334,75.586 93.140,72.335 90.057 C 72.013 89.752,71.705 89.502,71.651 89.501 C 71.445 89.498,70.698 88.723,70.204 88.000 C 69.922 87.587,69.480 87.054,69.221 86.814 C 68.936 86.551,68.562 85.859,68.274 85.064 C 68.013 84.341,67.577 83.350,67.307 82.861 C 65.595 79.768,65.526 71.136,67.180 67.032 C 67.464 66.327,67.844 65.280,68.023 64.705 C 68.374 63.578,68.844 62.663,69.412 62.000 C 69.840 61.500,70.667 60.221,70.667 60.058 C 70.667 59.682,73.910 56.667,74.315 56.667 C 74.388 56.667,74.589 56.511,74.762 56.321 C 75.278 55.750,76.983 54.896,78.683 54.358 C 79.563 54.079,80.593 53.727,80.972 53.575 C 82.305 53.042,85.907 52.928,88.083 53.350 M83.572 57.246 C 81.584 57.967,79.537 59.148,78.898 59.944 C 78.541 60.387,78.191 60.776,78.119 60.808 C 77.700 60.991,77.000 61.748,76.747 62.290 C 76.586 62.635,76.066 63.517,75.592 64.250 C 74.347 66.174,74.042 67.161,73.174 72.069 C 72.959 73.288,72.947 76.374,73.153 77.450 C 73.238 77.890,73.397 78.737,73.507 79.333 C 74.092 82.497,74.366 83.193,75.905 85.427 C 76.983 86.992,77.806 87.638,79.583 88.315 C 80.133 88.525,80.771 88.773,81.000 88.866 C 84.224 90.186,89.730 87.457,92.668 83.083 C 92.975 82.625,93.495 81.939,93.822 81.560 C 94.149 81.180,94.566 80.580,94.747 80.226 C 94.929 79.873,95.308 79.208,95.588 78.750 C 96.388 77.441,96.502 77.064,96.512 75.697 C 96.521 74.434,96.459 74.177,95.534 71.667 C 95.349 71.162,94.927 69.723,94.598 68.468 C 94.244 67.117,93.671 65.484,93.194 64.468 C 92.751 63.523,92.269 62.487,92.122 62.167 C 91.975 61.846,91.579 61.321,91.242 61.000 C 90.905 60.679,90.421 60.088,90.168 59.687 C 89.119 58.026,85.309 56.616,83.572 57.246 M85.776 59.061 C 87.599 59.409,88.283 59.816,89.333 61.181 C 89.837 61.835,90.330 62.456,90.428 62.561 C 91.361 63.557,93.329 68.961,94.426 73.543 C 94.905 75.542,94.879 76.456,94.314 77.500 C 94.239 77.637,94.029 78.087,93.847 78.500 C 93.664 78.912,93.212 79.625,92.841 80.083 C 92.470 80.542,92.051 81.166,91.909 81.470 C 91.768 81.775,91.217 82.491,90.686 83.062 C 90.155 83.634,89.652 84.211,89.568 84.347 C 89.485 84.482,89.117 84.826,88.750 85.111 C 88.383 85.397,87.802 85.896,87.459 86.220 C 86.236 87.375,81.933 87.742,79.942 86.862 C 77.771 85.901,75.383 82.045,74.921 78.752 C 74.228 73.814,74.813 68.706,76.365 66.151 C 76.620 65.730,76.943 65.064,77.082 64.671 C 77.377 63.836,79.265 61.532,80.533 60.461 C 81.380 59.745,82.139 59.391,83.583 59.038 C 84.517 58.810,84.456 58.809,85.776 59.061 M117.833 100.481 C 117.833 102.196,118.448 104.488,119.031 104.947 C 119.478 105.300,120.316 105.345,120.486 105.026 C 120.625 104.766,120.584 104.736,120.175 104.796 C 119.053 104.961,118.451 103.920,118.165 101.318 C 117.943 99.301,117.833 99.024,117.833 100.481 M113.755 109.175 C 113.809 109.262,113.935 109.333,114.036 109.333 C 114.777 109.333,116.027 110.901,115.565 111.251 C 115.136 111.575,115.499 111.566,115.964 111.240 C 116.396 110.937,116.260 110.520,115.517 109.877 C 115.070 109.490,113.584 108.898,113.755 109.175 " stroke="none" fill="#6a4527" fill-rule="evenodd"></path></g></svg>